<svg xmlns="http://www.w3.org/2000/svg" width="1500" height="980" viewBox="0 0 1500 980" role="img" aria-labelledby="title desc">
<title id="title">Import and evidence-use layers</title><desc id="desc">Layered print view separating source records, evidence surfaces, and imports.</desc><style>text{font-family:Arial,Helvetica,sans-serif;fill:#1f2933}.tiny{font-size:12px}.small{font-size:14px}.label{font-size:15px}.title{font-size:24px;font-weight:700}.caption{font-size:14px;fill:#475569}.axis{stroke:#CBD5E1}.callout{font-size:14px;font-weight:700}.edgeLabel{font-size:12px;paint-order:stroke;stroke:#ffffff;stroke-width:5px;stroke-linejoin:round}</style><rect width="100%" height="100%" fill="#ffffff"/>
<text class="title" x="48" y="48">Import and evidence-use layers</text>
<text class="caption" x="48" y="78">Layered view separating sources, evidence/format surfaces, and imports. Metadata-only evidence is not treated as a parsed semantic import.</text>
<text class="label" x="160" y="116">Sources</text>
<text class="label" x="640" y="236">Evidence or format surface</text>
<text class="label" x="1124" y="140">Imports</text>
<path d="M400.0,175.4 C520,175.4 1000,260.0 620.0,260.0" fill="none" stroke="#9333EA" stroke-width="1.6" opacity="0.42"/>
<path d="M400.0,205.9 C520,205.9 1000,260.0 620.0,260.0" fill="none" stroke="#9333EA" stroke-width="1.6" opacity="0.42"/>
<path d="M400.0,236.3 C520,236.3 1000,260.0 620.0,260.0" fill="none" stroke="#9333EA" stroke-width="1.6" opacity="0.42"/>
<path d="M400.0,266.7 C520,266.7 1000,260.0 620.0,260.0" fill="none" stroke="#9333EA" stroke-width="1.6" opacity="0.42"/>
<path d="M400.0,327.6 C520,327.6 1000,260.0 620.0,260.0" fill="none" stroke="#9333EA" stroke-width="1.6" opacity="0.42"/>
<path d="M400.0,297.2 C520,297.2 1000,260.0 620.0,260.0" fill="none" stroke="#9333EA" stroke-width="1.6" opacity="0.42"/>
<path d="M400.0,358.0 C520,358.0 1000,260.0 620.0,260.0" fill="none" stroke="#9333EA" stroke-width="1.6" opacity="0.42"/>
<path d="M400.0,388.5 C520,388.5 1000,260.0 620.0,260.0" fill="none" stroke="#9333EA" stroke-width="1.6" opacity="0.42"/>
<path d="M400.0,418.9 C520,418.9 1000,260.0 620.0,260.0" fill="none" stroke="#9333EA" stroke-width="1.6" opacity="0.42"/>
<path d="M400.0,449.3 C520,449.3 1000,260.0 620.0,260.0" fill="none" stroke="#9333EA" stroke-width="1.6" opacity="0.42"/>
<path d="M400.0,479.8 C520,479.8 1000,260.0 620.0,260.0" fill="none" stroke="#9333EA" stroke-width="1.6" opacity="0.42"/>
<path d="M400.0,571.1 C520,571.1 1000,260.0 620.0,260.0" fill="none" stroke="#9333EA" stroke-width="1.6" opacity="0.42"/>
<path d="M400.0,510.2 C520,510.2 1000,260.0 620.0,260.0" fill="none" stroke="#9333EA" stroke-width="1.6" opacity="0.42"/>
<path d="M400.0,540.7 C520,540.7 1000,490.0 620.0,490.0" fill="none" stroke="#475569" stroke-width="1.6" opacity="0.42"/>
<path d="M400.0,601.5 C520,601.5 1000,260.0 620.0,260.0" fill="none" stroke="#9333EA" stroke-width="1.6" opacity="0.42"/>
<path d="M400.0,632.0 C520,632.0 1000,720.0 620.0,720.0" fill="none" stroke="#475569" stroke-width="1.6" opacity="0.42"/>
<path d="M400.0,662.4 C520,662.4 1000,260.0 620.0,260.0" fill="none" stroke="#9333EA" stroke-width="1.6" opacity="0.42"/>
<path d="M400.0,145.0 C520,145.0 1000,490.0 620.0,490.0" fill="none" stroke="#475569" stroke-width="1.6" opacity="0.42"/>
<path d="M400.0,145.0 C520,145.0 1000,810.0 1080.0,810.0" fill="none" stroke="#64748B" stroke-width="1.6" opacity="0.42"/>
<path d="M400.0,784.1 C520,784.1 1000,170.0 1080.0,170.0" fill="none" stroke="#64748B" stroke-width="1.6" opacity="0.42"/>
<path d="M400.0,814.6 C520,814.6 1000,170.0 1080.0,170.0" fill="none" stroke="#64748B" stroke-width="1.6" opacity="0.42"/>
<path d="M400.0,845.0 C520,845.0 1000,170.0 1080.0,170.0" fill="none" stroke="#64748B" stroke-width="1.6" opacity="0.42"/>
<path d="M400.0,692.8 C520,692.8 1000,170.0 1080.0,170.0" fill="none" stroke="#64748B" stroke-width="1.6" opacity="0.42"/>
<path d="M400.0,723.3 C520,723.3 1000,170.0 1080.0,170.0" fill="none" stroke="#64748B" stroke-width="1.6" opacity="0.42"/>
<path d="M400.0,753.7 C520,753.7 1000,170.0 1080.0,170.0" fill="none" stroke="#64748B" stroke-width="1.6" opacity="0.42"/>
<rect x="140.0" y="131.0" width="260" height="28" fill="#FFF7ED" stroke="#D97706" rx="4"/>
<text class="tiny" text-anchor="middle" x="270.0" y="149.0">SSN/SOSA</text>
<rect x="140.0" y="161.4" width="260" height="28" fill="#FFF7ED" stroke="#D97706" rx="4"/>
<text class="tiny" text-anchor="middle" x="270.0" y="179.4">Basic Formal Ontology</text>
<rect x="140.0" y="191.9" width="260" height="28" fill="#FFF7ED" stroke="#D97706" rx="4"/>
<text class="tiny" text-anchor="middle" x="270.0" y="209.9">DEVS simulation</text>
<rect x="140.0" y="222.3" width="260" height="28" fill="#FFF7ED" stroke="#D97706" rx="4"/>
<text class="tiny" text-anchor="middle" x="270.0" y="240.3">DOLCE ontology</text>
<rect x="140.0" y="252.7" width="260" height="28" fill="#FFF7ED" stroke="#D97706" rx="4"/>
<text class="tiny" text-anchor="middle" x="270.0" y="270.7">EMMO</text>
<rect x="140.0" y="283.2" width="260" height="28" fill="#FFF7ED" stroke="#D97706" rx="4"/>
<text class="tiny" text-anchor="middle" x="270.0" y="301.2">Game Description Language</text>
<rect x="140.0" y="313.6" width="260" height="28" fill="#FFF7ED" stroke="#D97706" rx="4"/>
<text class="tiny" text-anchor="middle" x="270.0" y="331.6">Game Ontology Project</text>
<rect x="140.0" y="344.0" width="260" height="28" fill="#FFF7ED" stroke="#D97706" rx="4"/>
<text class="tiny" text-anchor="middle" x="270.0" y="362.0">HLA Federation Object Model</text>
<rect x="140.0" y="374.5" width="260" height="28" fill="#FFF7ED" stroke="#D97706" rx="4"/>
<text class="tiny" text-anchor="middle" x="270.0" y="392.5">KAoS policy ontology</text>
<rect x="140.0" y="404.9" width="260" height="28" fill="#FFF7ED" stroke="#D97706" rx="4"/>
<text class="tiny" text-anchor="middle" x="270.0" y="422.9">KiSAO algorithms</text>
<rect x="140.0" y="435.3" width="260" height="28" fill="#FFF7ED" stroke="#D97706" rx="4"/>
<text class="tiny" text-anchor="middle" x="270.0" y="453.3">MIASE</text>
<rect x="140.0" y="465.8" width="260" height="28" fill="#FFF7ED" stroke="#D97706" rx="4"/>
<text class="tiny" text-anchor="middle" x="270.0" y="483.8">ODD protocol</text>
<rect x="140.0" y="496.2" width="260" height="28" fill="#FFF7ED" stroke="#D97706" rx="4"/>
<text class="tiny" text-anchor="middle" x="270.0" y="514.2">OSMO</text>
<rect x="140.0" y="526.7" width="260" height="28" fill="#FFF7ED" stroke="#D97706" rx="4"/>
<text class="tiny" text-anchor="middle" x="270.0" y="544.7">OWL-Time</text>
<rect x="140.0" y="557.1" width="260" height="28" fill="#FFF7ED" stroke="#D97706" rx="4"/>
<text class="tiny" text-anchor="middle" x="270.0" y="575.1">OntoUML / UFO</text>
<rect x="140.0" y="587.5" width="260" height="28" fill="#FFF7ED" stroke="#D97706" rx="4"/>
<text class="tiny" text-anchor="middle" x="270.0" y="605.5">P-Plan</text>
<rect x="140.0" y="618.0" width="260" height="28" fill="#FFF7ED" stroke="#D97706" rx="4"/>
<text class="tiny" text-anchor="middle" x="270.0" y="636.0">PROV-O</text>
<rect x="140.0" y="648.4" width="260" height="28" fill="#FFF7ED" stroke="#D97706" rx="4"/>
<text class="tiny" text-anchor="middle" x="270.0" y="666.4">SED-ML</text>
<rect x="140.0" y="678.8" width="260" height="28" fill="#FFF7ED" stroke="#D97706" rx="4"/>
<text class="tiny" text-anchor="middle" x="270.0" y="696.8">UOGTO Actions</text>
<rect x="140.0" y="709.3" width="260" height="28" fill="#FFF7ED" stroke="#D97706" rx="4"/>
<text class="tiny" text-anchor="middle" x="270.0" y="727.3">UOGTO Agents</text>
<rect x="140.0" y="739.7" width="260" height="28" fill="#FFF7ED" stroke="#D97706" rx="4"/>
<text class="tiny" text-anchor="middle" x="270.0" y="757.7">UOGTO Algorithmic Game Theory</text>
<rect x="140.0" y="770.1" width="260" height="28" fill="#FFF7ED" stroke="#D97706" rx="4"/>
<text class="tiny" text-anchor="middle" x="270.0" y="788.1">UOGTO Alignments Mcp A2a</text>
<rect x="140.0" y="800.6" width="260" height="28" fill="#FFF7ED" stroke="#D97706" rx="4"/>
<text class="tiny" text-anchor="middle" x="270.0" y="818.6">UOGTO Alignments Open Games</text>
<rect x="140.0" y="831.0" width="260" height="28" fill="#FFF7ED" stroke="#D97706" rx="4"/>
<text class="tiny" text-anchor="middle" x="270.0" y="849.0">UOGTO Alignments Prov O</text>
<rect x="615.0" y="240.0" width="270" height="40" fill="#F3E8FF" stroke="#9333EA" rx="6"/>
<text class="small" text-anchor="middle" x="750.0" y="265.0">Metadata-only sources (17)</text>
<rect x="615.0" y="470.0" width="270" height="40" fill="#F1F5F9" stroke="#475569" rx="6"/>
<text class="small" text-anchor="middle" x="750.0" y="495.0">Format: Turtle (3)</text>
<rect x="615.0" y="700.0" width="270" height="40" fill="#F1F5F9" stroke="#475569" rx="6"/>
<text class="small" text-anchor="middle" x="750.0" y="725.0">Format: Xml (1)</text>
<rect x="1080.0" y="153.0" width="260" height="34" fill="#ECFDF5" stroke="#0F766E" rx="5"/>
<text class="tiny" text-anchor="middle" x="1210.0" y="174.0">Import: Core (46)</text>
<rect x="1080.0" y="793.0" width="260" height="34" fill="#ECFDF5" stroke="#0F766E" rx="5"/>
<text class="tiny" text-anchor="middle" x="1210.0" y="814.0">Import: Sosa (1)</text>
<text class="caption" x="48" y="930">Shown: 29 of 75 source/evidence/import nodes and 25 edges.</text>
</svg>
