<svg xmlns="http://www.w3.org/2000/svg" width="1500" height="980" viewBox="0 0 1500 980" role="img" aria-labelledby="title desc">
<title id="title">Source-similarity backbone</title><desc id="desc">Print-oriented backbone view of source-similarity overlap links.</desc><style>text{font-family:Arial,Helvetica,sans-serif;fill:#1f2933}.tiny{font-size:12px}.small{font-size:14px}.label{font-size:15px}.title{font-size:24px;font-weight:700}.caption{font-size:14px;fill:#475569}.axis{stroke:#CBD5E1}.callout{font-size:14px;font-weight:700}.edgeLabel{font-size:12px;paint-order:stroke;stroke:#ffffff;stroke-width:5px;stroke-linejoin:round}</style><rect width="100%" height="100%" fill="#ffffff"/>
<text class="title" x="48" y="48">Source-similarity backbone</text>
<text class="caption" x="48" y="78">Print view of the strongest overlap links among comparator sources and UOGTO modules. Edges guide review; they are not equivalence claims.</text>
<text class="label" x="112" y="120">Comparator source families</text>
<text class="label" x="1035" y="120">UOGTO bridge modules</text>
<path d="M432.0,307.6 C610,307.6 890,386.5 168.0,386.5" fill="none" stroke="#475569" stroke-width="5.80" opacity="0.66"/>
<path d="M1312.0,284.0 C610,284.0 890,239.3 1048.0,239.3" fill="none" stroke="#475569" stroke-width="4.87" opacity="0.57"/>
<path d="M1312.0,373.3 C610,373.3 890,328.7 1048.0,328.7" fill="none" stroke="#475569" stroke-width="4.50" opacity="0.54"/>
<path d="M1312.0,373.3 C610,373.3 890,284.0 1048.0,284.0" fill="none" stroke="#475569" stroke-width="4.37" opacity="0.52"/>
<path d="M1312.0,284.0 C610,284.0 890,150.0 1048.0,150.0" fill="none" stroke="#475569" stroke-width="4.37" opacity="0.52"/>
<path d="M1312.0,284.0 C610,284.0 890,194.7 1048.0,194.7" fill="none" stroke="#475569" stroke-width="4.24" opacity="0.51"/>
<path d="M1312.0,775.3 C610,775.3 890,150.0 1048.0,150.0" fill="none" stroke="#475569" stroke-width="4.24" opacity="0.51"/>
<path d="M1312.0,462.7 C610,462.7 890,239.3 1048.0,239.3" fill="none" stroke="#475569" stroke-width="4.10" opacity="0.50"/>
<path d="M432.0,189.4 C610,189.4 890,386.5 168.0,386.5" fill="none" stroke="#475569" stroke-width="3.97" opacity="0.48"/>
<path d="M432.0,622.9 C610,622.9 890,228.8 168.0,228.8" fill="none" stroke="#475569" stroke-width="3.97" opacity="0.48"/>
<path d="M1312.0,596.7 C610,596.7 890,194.7 1048.0,194.7" fill="none" stroke="#475569" stroke-width="3.97" opacity="0.48"/>
<path d="M1312.0,462.7 C610,462.7 890,641.3 1048.0,641.3" fill="none" stroke="#475569" stroke-width="3.97" opacity="0.48"/>
<path d="M1312.0,373.3 C610,373.3 890,150.0 1048.0,150.0" fill="none" stroke="#475569" stroke-width="3.97" opacity="0.48"/>
<path d="M432.0,268.2 C610,268.2 890,150.0 168.0,150.0" fill="none" stroke="#475569" stroke-width="3.86" opacity="0.47"/>
<path d="M1312.0,373.3 C610,373.3 890,194.7 1048.0,194.7" fill="none" stroke="#475569" stroke-width="3.86" opacity="0.47"/>
<path d="M1312.0,194.7 C610,194.7 890,150.0 1048.0,150.0" fill="none" stroke="#475569" stroke-width="3.86" opacity="0.47"/>
<path d="M1312.0,328.7 C610,328.7 890,150.0 1048.0,150.0" fill="none" stroke="#475569" stroke-width="3.86" opacity="0.47"/>
<path d="M1312.0,150.0 C610,150.0 890,239.3 1048.0,239.3" fill="none" stroke="#475569" stroke-width="3.86" opacity="0.47"/>
<path d="M1312.0,194.7 C610,194.7 890,328.7 1048.0,328.7" fill="none" stroke="#475569" stroke-width="3.75" opacity="0.46"/>
<path d="M1312.0,194.7 C610,194.7 890,239.3 1048.0,239.3" fill="none" stroke="#475569" stroke-width="3.75" opacity="0.46"/>
<path d="M1312.0,820.0 C610,820.0 890,150.0 1048.0,150.0" fill="none" stroke="#475569" stroke-width="3.75" opacity="0.46"/>
<path d="M1312.0,284.0 C610,284.0 890,328.7 1048.0,328.7" fill="none" stroke="#475569" stroke-width="3.65" opacity="0.45"/>
<path d="M1312.0,418.0 C610,418.0 890,820.0 1048.0,820.0" fill="none" stroke="#475569" stroke-width="3.65" opacity="0.45"/>
<path d="M432.0,150.0 C610,150.0 890,189.4 168.0,189.4" fill="none" stroke="#475569" stroke-width="3.55" opacity="0.44"/>
<path d="M432.0,150.0 C610,150.0 890,347.1 168.0,347.1" fill="none" stroke="#475569" stroke-width="3.55" opacity="0.44"/>
<path d="M432.0,504.7 C610,504.7 890,307.6 168.0,307.6" fill="none" stroke="#475569" stroke-width="3.55" opacity="0.44"/>
<path d="M1312.0,462.7 C610,462.7 890,373.3 1048.0,373.3" fill="none" stroke="#475569" stroke-width="3.55" opacity="0.44"/>
<path d="M1312.0,462.7 C610,462.7 890,150.0 1048.0,150.0" fill="none" stroke="#475569" stroke-width="3.55" opacity="0.44"/>
<path d="M1312.0,686.0 C610,686.0 890,150.0 1048.0,150.0" fill="none" stroke="#475569" stroke-width="3.55" opacity="0.44"/>
<path d="M1312.0,507.3 C610,507.3 890,150.0 1048.0,150.0" fill="none" stroke="#475569" stroke-width="3.55" opacity="0.44"/>
<path d="M1312.0,730.7 C610,730.7 890,194.7 1048.0,194.7" fill="none" stroke="#475569" stroke-width="3.55" opacity="0.44"/>
<path d="M1312.0,507.3 C610,507.3 890,239.3 1048.0,239.3" fill="none" stroke="#475569" stroke-width="3.46" opacity="0.44"/>
<path d="M1312.0,820.0 C610,820.0 890,552.0 1048.0,552.0" fill="none" stroke="#475569" stroke-width="3.46" opacity="0.44"/>
<path d="M1312.0,462.7 C610,462.7 890,194.7 1048.0,194.7" fill="none" stroke="#475569" stroke-width="3.44" opacity="0.43"/>
<path d="M1312.0,462.7 C610,462.7 890,418.0 1048.0,418.0" fill="none" stroke="#475569" stroke-width="3.44" opacity="0.43"/>
<path d="M1312.0,462.7 C610,462.7 890,328.7 1048.0,328.7" fill="none" stroke="#475569" stroke-width="3.44" opacity="0.43"/>
<path d="M1312.0,507.3 C610,507.3 890,775.3 1048.0,775.3" fill="none" stroke="#475569" stroke-width="3.40" opacity="0.43"/>
<path d="M1312.0,686.0 C610,686.0 890,820.0 1048.0,820.0" fill="none" stroke="#475569" stroke-width="3.38" opacity="0.43"/>
<path d="M1312.0,507.3 C610,507.3 890,641.3 1048.0,641.3" fill="none" stroke="#475569" stroke-width="3.38" opacity="0.43"/>
<path d="M1312.0,462.7 C610,462.7 890,284.0 1048.0,284.0" fill="none" stroke="#475569" stroke-width="3.35" opacity="0.42"/>
<path d="M432.0,268.2 C610,268.2 890,189.4 168.0,189.4" fill="none" stroke="#475569" stroke-width="3.30" opacity="0.42"/>
<path d="M432.0,268.2 C610,268.2 890,347.1 168.0,347.1" fill="none" stroke="#475569" stroke-width="3.30" opacity="0.42"/>
<path d="M432.0,189.4 C610,189.4 890,307.6 168.0,307.6" fill="none" stroke="#475569" stroke-width="3.30" opacity="0.42"/>
<path d="M1312.0,373.3 C610,373.3 890,418.0 1048.0,418.0" fill="none" stroke="#475569" stroke-width="3.26" opacity="0.42"/>
<path d="M1312.0,373.3 C610,373.3 890,239.3 1048.0,239.3" fill="none" stroke="#475569" stroke-width="3.26" opacity="0.42"/>
<path d="M1312.0,418.0 C610,418.0 890,150.0 1048.0,150.0" fill="none" stroke="#475569" stroke-width="3.26" opacity="0.42"/>
<path d="M1312.0,462.7 C610,462.7 890,507.3 1048.0,507.3" fill="none" stroke="#475569" stroke-width="3.17" opacity="0.41"/>
<path d="M1312.0,373.3 C610,373.3 890,641.3 1048.0,641.3" fill="none" stroke="#475569" stroke-width="3.17" opacity="0.41"/>
<path d="M1312.0,194.7 C610,194.7 890,418.0 1048.0,418.0" fill="none" stroke="#475569" stroke-width="3.17" opacity="0.41"/>
<path d="M1312.0,418.0 C610,418.0 890,328.7 1048.0,328.7" fill="none" stroke="#475569" stroke-width="3.17" opacity="0.41"/>
<path d="M1312.0,418.0 C610,418.0 890,239.3 1048.0,239.3" fill="none" stroke="#475569" stroke-width="3.17" opacity="0.41"/>
<path d="M1312.0,328.7 C610,328.7 890,239.3 1048.0,239.3" fill="none" stroke="#475569" stroke-width="3.17" opacity="0.41"/>
<path d="M1312.0,150.0 C610,150.0 890,641.3 1048.0,641.3" fill="none" stroke="#475569" stroke-width="3.17" opacity="0.41"/>
<path d="M1312.0,194.7 C610,194.7 890,775.3 1048.0,775.3" fill="none" stroke="#475569" stroke-width="3.16" opacity="0.41"/>
<path d="M1312.0,775.3 C610,775.3 890,239.3 1048.0,239.3" fill="none" stroke="#475569" stroke-width="3.16" opacity="0.41"/>
<path d="M432.0,150.0 C610,150.0 890,465.3 168.0,465.3" fill="none" stroke="#475569" stroke-width="3.09" opacity="0.40"/>
<path d="M432.0,189.4 C610,189.4 890,347.1 168.0,347.1" fill="none" stroke="#475569" stroke-width="3.09" opacity="0.40"/>
<path d="M1312.0,596.7 C610,596.7 890,507.3 1048.0,507.3" fill="none" stroke="#475569" stroke-width="3.09" opacity="0.40"/>
<path d="M1312.0,284.0 C610,284.0 890,418.0 1048.0,418.0" fill="none" stroke="#475569" stroke-width="3.09" opacity="0.40"/>
<path d="M1312.0,284.0 C610,284.0 890,775.3 1048.0,775.3" fill="none" stroke="#475569" stroke-width="3.09" opacity="0.40"/>
<path d="M1312.0,194.7 C610,194.7 890,820.0 1048.0,820.0" fill="none" stroke="#475569" stroke-width="3.09" opacity="0.40"/>
<path d="M1312.0,194.7 C610,194.7 890,641.3 1048.0,641.3" fill="none" stroke="#475569" stroke-width="3.09" opacity="0.40"/>
<path d="M1312.0,418.0 C610,418.0 890,641.3 1048.0,641.3" fill="none" stroke="#475569" stroke-width="3.09" opacity="0.40"/>
<path d="M1312.0,328.7 C610,328.7 890,641.3 1048.0,641.3" fill="none" stroke="#475569" stroke-width="3.09" opacity="0.40"/>
<path d="M1312.0,730.7 C610,730.7 890,462.7 1048.0,462.7" fill="none" stroke="#475569" stroke-width="3.09" opacity="0.40"/>
<path d="M1312.0,820.0 C610,820.0 890,239.3 1048.0,239.3" fill="none" stroke="#475569" stroke-width="3.09" opacity="0.40"/>
<path d="M1312.0,552.0 C610,552.0 890,150.0 1048.0,150.0" fill="none" stroke="#475569" stroke-width="3.09" opacity="0.40"/>
<path d="M1312.0,239.3 C610,239.3 890,641.3 1048.0,641.3" fill="none" stroke="#475569" stroke-width="3.09" opacity="0.40"/>
<path d="M1312.0,373.3 C610,373.3 890,507.3 1048.0,507.3" fill="none" stroke="#475569" stroke-width="3.02" opacity="0.39"/>
<path d="M1312.0,284.0 C610,284.0 890,820.0 1048.0,820.0" fill="none" stroke="#475569" stroke-width="3.02" opacity="0.39"/>
<path d="M1312.0,284.0 C610,284.0 890,641.3 1048.0,641.3" fill="none" stroke="#475569" stroke-width="3.02" opacity="0.39"/>
<path d="M1312.0,194.7 C610,194.7 890,552.0 1048.0,552.0" fill="none" stroke="#475569" stroke-width="3.02" opacity="0.39"/>
<path d="M1312.0,552.0 C610,552.0 890,239.3 1048.0,239.3" fill="none" stroke="#475569" stroke-width="3.02" opacity="0.39"/>
<path d="M1312.0,596.7 C610,596.7 890,462.7 1048.0,462.7" fill="none" stroke="#475569" stroke-width="3.00" opacity="0.39"/>
<path d="M1312.0,686.0 C610,686.0 890,775.3 1048.0,775.3" fill="none" stroke="#475569" stroke-width="2.97" opacity="0.39"/>
<path d="M1312.0,284.0 C610,284.0 890,552.0 1048.0,552.0" fill="none" stroke="#475569" stroke-width="2.95" opacity="0.39"/>
<path d="M1312.0,686.0 C610,686.0 890,194.7 1048.0,194.7" fill="none" stroke="#475569" stroke-width="2.95" opacity="0.39"/>
<path d="M1312.0,686.0 C610,686.0 890,239.3 1048.0,239.3" fill="none" stroke="#475569" stroke-width="2.95" opacity="0.39"/>
<path d="M1312.0,194.7 C610,194.7 890,507.3 1048.0,507.3" fill="none" stroke="#475569" stroke-width="2.95" opacity="0.39"/>
<path d="M1312.0,507.3 C610,507.3 890,418.0 1048.0,418.0" fill="none" stroke="#475569" stroke-width="2.95" opacity="0.39"/>
<path d="M1312.0,507.3 C610,507.3 890,328.7 1048.0,328.7" fill="none" stroke="#475569" stroke-width="2.95" opacity="0.39"/>
<path d="M432.0,425.9 C610,425.9 890,228.8 168.0,228.8" fill="none" stroke="#475569" stroke-width="2.91" opacity="0.38"/>
<path d="M432.0,504.7 C610,504.7 890,386.5 168.0,386.5" fill="none" stroke="#475569" stroke-width="2.91" opacity="0.38"/>
<path d="M1312.0,462.7 C610,462.7 890,775.3 1048.0,775.3" fill="none" stroke="#475569" stroke-width="2.88" opacity="0.38"/>
<path d="M1312.0,284.0 C610,284.0 890,686.0 1048.0,686.0" fill="none" stroke="#475569" stroke-width="2.88" opacity="0.38"/>
<path d="M1312.0,284.0 C610,284.0 890,507.3 1048.0,507.3" fill="none" stroke="#475569" stroke-width="2.88" opacity="0.38"/>
<path d="M432.0,583.5 C610,583.5 890,228.8 168.0,228.8" fill="none" stroke="#475569" stroke-width="2.86" opacity="0.38"/>
<path d="M1312.0,730.7 C610,730.7 890,373.3 1048.0,373.3" fill="none" stroke="#475569" stroke-width="2.86" opacity="0.38"/>
<path d="M1312.0,730.7 C610,730.7 890,150.0 1048.0,150.0" fill="none" stroke="#475569" stroke-width="2.86" opacity="0.38"/>
<path d="M1312.0,596.7 C610,596.7 890,373.3 1048.0,373.3" fill="none" stroke="#475569" stroke-width="2.84" opacity="0.38"/>
<path d="M1312.0,596.7 C610,596.7 890,150.0 1048.0,150.0" fill="none" stroke="#475569" stroke-width="2.84" opacity="0.38"/>
<path d="M1312.0,596.7 C610,596.7 890,775.3 1048.0,775.3" fill="none" stroke="#475569" stroke-width="2.82" opacity="0.37"/>
<path d="M1312.0,686.0 C610,686.0 890,552.0 1048.0,552.0" fill="none" stroke="#475569" stroke-width="2.82" opacity="0.37"/>
<path d="M1312.0,507.3 C610,507.3 890,552.0 1048.0,552.0" fill="none" stroke="#475569" stroke-width="2.82" opacity="0.37"/>
<path d="M432.0,228.8 C610,228.8 890,701.8 168.0,701.8" fill="none" stroke="#475569" stroke-width="2.77" opacity="0.37"/>
<rect x="574" y="438" width="352" height="74" fill="#F8FAFC" stroke="#CBD5E1" rx="8" opacity="0.96"/>
<text class="small" text-anchor="middle" x="750" y="468">Overlap signals</text>
<text class="tiny" text-anchor="middle" x="750" y="492">labels, terms, imports, formats, and coverage</text>
<rect x="168.0" y="134.0" width="264" height="32" fill="#FEF3C7" stroke="#D97706" rx="5"/>
<text class="tiny" text-anchor="middle" x="300.0" y="154.0">DOLCE ontology (5)</text>
<rect x="168.0" y="173.4" width="264" height="32" fill="#FEF3C7" stroke="#D97706" rx="5"/>
<text class="tiny" text-anchor="middle" x="300.0" y="193.4">EMMO (5)</text>
<rect x="168.0" y="212.8" width="264" height="32" fill="#FEF3C7" stroke="#D97706" rx="5"/>
<text class="tiny" text-anchor="middle" x="300.0" y="232.8">SED-ML (4)</text>
<rect x="168.0" y="252.2" width="264" height="32" fill="#FEF3C7" stroke="#D97706" rx="5"/>
<text class="tiny" text-anchor="middle" x="300.0" y="272.2">Basic Formal Ontology (3)</text>
<rect x="168.0" y="291.6" width="264" height="32" fill="#FEF3C7" stroke="#D97706" rx="5"/>
<text class="tiny" text-anchor="middle" x="300.0" y="311.6">OSMO (3)</text>
<rect x="168.0" y="331.1" width="264" height="32" fill="#FEF3C7" stroke="#D97706" rx="5"/>
<text class="tiny" text-anchor="middle" x="300.0" y="351.1">OntoUML / UFO (3)</text>
<rect x="168.0" y="370.5" width="264" height="32" fill="#FEF3C7" stroke="#D97706" rx="5"/>
<text class="tiny" text-anchor="middle" x="300.0" y="390.5">VIMMP ontologies (3)</text>
<rect x="168.0" y="409.9" width="264" height="32" fill="#FEF3C7" stroke="#D97706" rx="5"/>
<text class="tiny" text-anchor="middle" x="300.0" y="429.9">Game Description Language (2)</text>
<rect x="168.0" y="449.3" width="264" height="32" fill="#FEF3C7" stroke="#D97706" rx="5"/>
<text class="tiny" text-anchor="middle" x="300.0" y="469.3">KAoS policy ontology (2)</text>
<rect x="168.0" y="488.7" width="264" height="32" fill="#FEF3C7" stroke="#D97706" rx="5"/>
<text class="tiny" text-anchor="middle" x="300.0" y="508.7">KiSAO algorithms (2)</text>
<rect x="168.0" y="528.1" width="264" height="32" fill="#FEF3C7" stroke="#D97706" rx="5"/>
<text class="tiny" text-anchor="middle" x="300.0" y="548.1">ODD protocol (2)</text>
<rect x="168.0" y="567.5" width="264" height="32" fill="#FEF3C7" stroke="#D97706" rx="5"/>
<text class="tiny" text-anchor="middle" x="300.0" y="587.5">HLA Federation Object Model (1)</text>
<rect x="168.0" y="606.9" width="264" height="32" fill="#FEF3C7" stroke="#D97706" rx="5"/>
<text class="tiny" text-anchor="middle" x="300.0" y="626.9">MIASE (1)</text>
<rect x="168.0" y="646.4" width="264" height="32" fill="#FEF3C7" stroke="#D97706" rx="5"/>
<text class="tiny" text-anchor="middle" x="300.0" y="666.4">P-Plan (1)</text>
<rect x="168.0" y="685.8" width="264" height="32" fill="#FEF3C7" stroke="#D97706" rx="5"/>
<text class="tiny" text-anchor="middle" x="300.0" y="705.8">XMILE system dynamics (1)</text>
<rect x="168.0" y="725.2" width="264" height="32" fill="#FEF3C7" stroke="#D97706" rx="5"/>
<text class="tiny" text-anchor="middle" x="300.0" y="745.2">DEVS simulation (0)</text>
<rect x="168.0" y="764.6" width="264" height="32" fill="#FEF3C7" stroke="#D97706" rx="5"/>
<text class="tiny" text-anchor="middle" x="300.0" y="784.6">Game Ontology Project (0)</text>
<rect x="168.0" y="804.0" width="264" height="32" fill="#FEF3C7" stroke="#D97706" rx="5"/>
<text class="tiny" text-anchor="middle" x="300.0" y="824.0">OWL-Time (0)</text>
<rect x="1048.0" y="134.0" width="264" height="32" fill="#DCFCE7" stroke="#0F766E" rx="5"/>
<text class="tiny" text-anchor="middle" x="1180.0" y="154.0">UOGTO Mean Field Games (31)</text>
<rect x="1048.0" y="178.7" width="264" height="32" fill="#DCFCE7" stroke="#0F766E" rx="5"/>
<text class="tiny" text-anchor="middle" x="1180.0" y="198.7">UOGTO Cooperative (30)</text>
<rect x="1048.0" y="223.3" width="264" height="32" fill="#DCFCE7" stroke="#0F766E" rx="5"/>
<text class="tiny" text-anchor="middle" x="1180.0" y="243.3">UOGTO Network Games (29)</text>
<rect x="1048.0" y="268.0" width="264" height="32" fill="#DCFCE7" stroke="#0F766E" rx="5"/>
<text class="tiny" text-anchor="middle" x="1180.0" y="288.0">UOGTO Congestion Routing Games (28)</text>
<rect x="1048.0" y="312.7" width="264" height="32" fill="#DCFCE7" stroke="#0F766E" rx="5"/>
<text class="tiny" text-anchor="middle" x="1180.0" y="332.7">UOGTO Evolutionary Games (27)</text>
<rect x="1048.0" y="357.3" width="264" height="32" fill="#DCFCE7" stroke="#0F766E" rx="5"/>
<text class="tiny" text-anchor="middle" x="1180.0" y="377.3">UOGTO Compositional Open Games (26)</text>
<rect x="1048.0" y="402.0" width="264" height="32" fill="#DCFCE7" stroke="#0F766E" rx="5"/>
<text class="tiny" text-anchor="middle" x="1180.0" y="422.0">UOGTO Epistemic Games (26)</text>
<rect x="1048.0" y="446.7" width="264" height="32" fill="#DCFCE7" stroke="#0F766E" rx="5"/>
<text class="tiny" text-anchor="middle" x="1180.0" y="466.7">UOGTO Causal Games (25)</text>
<rect x="1048.0" y="491.3" width="264" height="32" fill="#DCFCE7" stroke="#0F766E" rx="5"/>
<text class="tiny" text-anchor="middle" x="1180.0" y="511.3">UOGTO Digital Twin Games (24)</text>
<rect x="1048.0" y="536.0" width="264" height="32" fill="#DCFCE7" stroke="#0F766E" rx="5"/>
<text class="tiny" text-anchor="middle" x="1180.0" y="556.0">UOGTO Institutional Economics (24)</text>
<rect x="1048.0" y="580.7" width="264" height="32" fill="#DCFCE7" stroke="#0F766E" rx="5"/>
<text class="tiny" text-anchor="middle" x="1180.0" y="600.7">UOGTO Bargaining (23)</text>
<rect x="1048.0" y="625.3" width="264" height="32" fill="#DCFCE7" stroke="#0F766E" rx="5"/>
<text class="tiny" text-anchor="middle" x="1180.0" y="645.3">UOGTO Security Games (22)</text>
<rect x="1048.0" y="670.0" width="264" height="32" fill="#DCFCE7" stroke="#0F766E" rx="5"/>
<text class="tiny" text-anchor="middle" x="1180.0" y="690.0">UOGTO Contract Theory (21)</text>
<rect x="1048.0" y="714.7" width="264" height="32" fill="#DCFCE7" stroke="#0F766E" rx="5"/>
<text class="tiny" text-anchor="middle" x="1180.0" y="734.7">UOGTO Games (21)</text>
<rect x="1048.0" y="759.3" width="264" height="32" fill="#DCFCE7" stroke="#0F766E" rx="5"/>
<text class="tiny" text-anchor="middle" x="1180.0" y="779.3">UOGTO LLM Agent Games (21)</text>
<rect x="1048.0" y="804.0" width="264" height="32" fill="#DCFCE7" stroke="#0F766E" rx="5"/>
<text class="tiny" text-anchor="middle" x="1180.0" y="824.0">UOGTO Information Design (20)</text>
<text class="caption" x="48" y="930">Shown: 34 high-degree nodes and 95 strongest visible links from 391 graph edges.</text>
</svg>
