<svg xmlns="http://www.w3.org/2000/svg" width="980" height="560" viewBox="0 0 980 560" role="img">
<title>Mapping review flow</title><style>text{font-family:Arial,sans-serif;fill:#1f2933} .small{font-size:11px} .label{font-size:12px} .title{font-size:18px;font-weight:700}</style><rect width="100%" height="100%" fill="#ffffff"/>
<text class="title" x="28" y="34">Mapping review flow</text>
<text class="label" x="40" y="64">Source</text>
<rect x="40" y="86" width="150" height="258" fill="#24536b" opacity="0.88" rx="3"/>
<text class="small" x="48" y="102">owl_time (120)</text>
<rect x="40" y="358" width="150" height="258" fill="#4f7c45" opacity="0.88" rx="3"/>
<text class="small" x="48" y="374">schema_org (120)</text>
<rect x="40" y="630" width="150" height="250" fill="#a65f2a" opacity="0.88" rx="3"/>
<text class="small" x="48" y="646">prov_o (116)</text>
<rect x="40" y="894" width="150" height="226" fill="#7a4f8f" opacity="0.88" rx="3"/>
<text class="small" x="48" y="910">ssn_sosa (104)</text>
<text class="label" x="410" y="64">Review status</text>
<rect x="410" y="86" width="150" height="916" fill="#24536b" opacity="0.88" rx="3"/>
<text class="small" x="418" y="102">rejected (449)</text>
<rect x="410" y="1016" width="150" height="38" fill="#4f7c45" opacity="0.88" rx="3"/>
<text class="small" x="418" y="1032">accepted (10)</text>
<rect x="410" y="1068" width="150" height="20" fill="#a65f2a" opacity="0.88" rx="3"/>
<text class="small" x="418" y="1084">needs_domain_revie (1)</text>
<text class="label" x="760" y="64">UOGTO module</text>
<rect x="760" y="86" width="150" height="316" fill="#24536b" opacity="0.88" rx="3"/>
<text class="small" x="768" y="102">uogto_core_uogto-c (149)</text>
<rect x="760" y="416" width="150" height="80" fill="#4f7c45" opacity="0.88" rx="3"/>
<text class="small" x="768" y="432">uogto_alignments_p (31)</text>
<rect x="760" y="510" width="150" height="62" fill="#a65f2a" opacity="0.88" rx="3"/>
<text class="small" x="768" y="526">uogto_extensions_m (22)</text>
<rect x="760" y="586" width="150" height="60" fill="#7a4f8f" opacity="0.88" rx="3"/>
<text class="small" x="768" y="602">uogto_extensions_c (21)</text>
<rect x="760" y="660" width="150" height="54" fill="#b44b4b" opacity="0.88" rx="3"/>
<text class="small" x="768" y="676">uogto_extensions_v (18)</text>
<rect x="760" y="728" width="150" height="52" fill="#3d6fa8" opacity="0.88" rx="3"/>
<text class="small" x="768" y="744">uogto_core_actions (17)</text>
<rect x="760" y="794" width="150" height="48" fill="#8a6b2e" opacity="0.88" rx="3"/>
<text class="small" x="768" y="810">uogto_extensions_m (15)</text>
<rect x="760" y="856" width="150" height="42" fill="#4c6b5f" opacity="0.88" rx="3"/>
<text class="small" x="768" y="872">uogto_extensions_t (12)</text>
<path d="M190,215.0 C280,215.0 470,544.0 560,544.0" fill="none" stroke="#9fb3c8" stroke-width="0.8" opacity="0.35"/>
<path d="M190,215.0 C280,215.0 470,544.0 560,544.0" fill="none" stroke="#9fb3c8" stroke-width="0.8" opacity="0.35"/>
<path d="M560,544.0 C640,544.0 820,687.0 760,687.0" fill="none" stroke="#bcccdc" stroke-width="0.8" opacity="0.3"/>
<path d="M190,215.0 C280,215.0 470,544.0 560,544.0" fill="none" stroke="#9fb3c8" stroke-width="0.8" opacity="0.35"/>
<path d="M560,544.0 C640,544.0 820,687.0 760,687.0" fill="none" stroke="#bcccdc" stroke-width="0.8" opacity="0.3"/>
<path d="M190,215.0 C280,215.0 470,544.0 560,544.0" fill="none" stroke="#9fb3c8" stroke-width="0.8" opacity="0.35"/>
<path d="M190,215.0 C280,215.0 470,544.0 560,544.0" fill="none" stroke="#9fb3c8" stroke-width="0.8" opacity="0.35"/>
<path d="M560,544.0 C640,544.0 820,541.0 760,541.0" fill="none" stroke="#bcccdc" stroke-width="0.8" opacity="0.3"/>
<path d="M190,215.0 C280,215.0 470,544.0 560,544.0" fill="none" stroke="#9fb3c8" stroke-width="0.8" opacity="0.35"/>
<path d="M560,544.0 C640,544.0 820,244.0 760,244.0" fill="none" stroke="#bcccdc" stroke-width="0.8" opacity="0.3"/>
<path d="M190,215.0 C280,215.0 470,544.0 560,544.0" fill="none" stroke="#9fb3c8" stroke-width="0.8" opacity="0.35"/>
<path d="M190,215.0 C280,215.0 470,544.0 560,544.0" fill="none" stroke="#9fb3c8" stroke-width="0.8" opacity="0.35"/>
<path d="M560,544.0 C640,544.0 820,244.0 760,244.0" fill="none" stroke="#bcccdc" stroke-width="0.8" opacity="0.3"/>
<path d="M190,215.0 C280,215.0 470,544.0 560,544.0" fill="none" stroke="#9fb3c8" stroke-width="0.8" opacity="0.35"/>
<path d="M560,544.0 C640,544.0 820,244.0 760,244.0" fill="none" stroke="#bcccdc" stroke-width="0.8" opacity="0.3"/>
<path d="M190,215.0 C280,215.0 470,544.0 560,544.0" fill="none" stroke="#9fb3c8" stroke-width="0.8" opacity="0.35"/>
<path d="M560,544.0 C640,544.0 820,244.0 760,244.0" fill="none" stroke="#bcccdc" stroke-width="0.8" opacity="0.3"/>
<path d="M190,215.0 C280,215.0 470,544.0 560,544.0" fill="none" stroke="#9fb3c8" stroke-width="0.8" opacity="0.35"/>
<path d="M190,215.0 C280,215.0 470,544.0 560,544.0" fill="none" stroke="#9fb3c8" stroke-width="0.8" opacity="0.35"/>
<path d="M190,215.0 C280,215.0 470,544.0 560,544.0" fill="none" stroke="#9fb3c8" stroke-width="0.8" opacity="0.35"/>
<path d="M190,215.0 C280,215.0 470,544.0 560,544.0" fill="none" stroke="#9fb3c8" stroke-width="0.8" opacity="0.35"/>
<path d="M560,544.0 C640,544.0 820,244.0 760,244.0" fill="none" stroke="#bcccdc" stroke-width="0.8" opacity="0.3"/>
<path d="M190,215.0 C280,215.0 470,544.0 560,544.0" fill="none" stroke="#9fb3c8" stroke-width="0.8" opacity="0.35"/>
<path d="M190,215.0 C280,215.0 470,544.0 560,544.0" fill="none" stroke="#9fb3c8" stroke-width="0.8" opacity="0.35"/>
<path d="M190,215.0 C280,215.0 470,544.0 560,544.0" fill="none" stroke="#9fb3c8" stroke-width="0.8" opacity="0.35"/>
<path d="M190,215.0 C280,215.0 470,544.0 560,544.0" fill="none" stroke="#9fb3c8" stroke-width="0.8" opacity="0.35"/>
<path d="M190,215.0 C280,215.0 470,544.0 560,544.0" fill="none" stroke="#9fb3c8" stroke-width="0.8" opacity="0.35"/>
<path d="M560,544.0 C640,544.0 820,541.0 760,541.0" fill="none" stroke="#bcccdc" stroke-width="0.8" opacity="0.3"/>
<path d="M190,215.0 C280,215.0 470,544.0 560,544.0" fill="none" stroke="#9fb3c8" stroke-width="0.8" opacity="0.35"/>
<path d="M560,544.0 C640,544.0 820,244.0 760,244.0" fill="none" stroke="#bcccdc" stroke-width="0.8" opacity="0.3"/>
<path d="M190,215.0 C280,215.0 470,544.0 560,544.0" fill="none" stroke="#9fb3c8" stroke-width="0.8" opacity="0.35"/>
<path d="M190,215.0 C280,215.0 470,544.0 560,544.0" fill="none" stroke="#9fb3c8" stroke-width="0.8" opacity="0.35"/>
<path d="M190,215.0 C280,215.0 470,544.0 560,544.0" fill="none" stroke="#9fb3c8" stroke-width="0.8" opacity="0.35"/>
<path d="M190,215.0 C280,215.0 470,544.0 560,544.0" fill="none" stroke="#9fb3c8" stroke-width="0.8" opacity="0.35"/>
<path d="M560,544.0 C640,544.0 820,541.0 760,541.0" fill="none" stroke="#bcccdc" stroke-width="0.8" opacity="0.3"/>
<path d="M190,215.0 C280,215.0 470,544.0 560,544.0" fill="none" stroke="#9fb3c8" stroke-width="0.8" opacity="0.35"/>
<path d="M190,215.0 C280,215.0 470,544.0 560,544.0" fill="none" stroke="#9fb3c8" stroke-width="0.8" opacity="0.35"/>
<path d="M560,544.0 C640,544.0 820,877.0 760,877.0" fill="none" stroke="#bcccdc" stroke-width="0.8" opacity="0.3"/>
<path d="M190,215.0 C280,215.0 470,544.0 560,544.0" fill="none" stroke="#9fb3c8" stroke-width="0.8" opacity="0.35"/>
<path d="M190,215.0 C280,215.0 470,544.0 560,544.0" fill="none" stroke="#9fb3c8" stroke-width="0.8" opacity="0.35"/>
<path d="M190,215.0 C280,215.0 470,544.0 560,544.0" fill="none" stroke="#9fb3c8" stroke-width="0.8" opacity="0.35"/>
<path d="M560,544.0 C640,544.0 820,616.0 760,616.0" fill="none" stroke="#bcccdc" stroke-width="0.8" opacity="0.3"/>
<path d="M190,215.0 C280,215.0 470,544.0 560,544.0" fill="none" stroke="#9fb3c8" stroke-width="0.8" opacity="0.35"/>
<path d="M190,215.0 C280,215.0 470,544.0 560,544.0" fill="none" stroke="#9fb3c8" stroke-width="0.8" opacity="0.35"/>
<path d="M190,215.0 C280,215.0 470,544.0 560,544.0" fill="none" stroke="#9fb3c8" stroke-width="0.8" opacity="0.35"/>
<path d="M560,544.0 C640,544.0 820,687.0 760,687.0" fill="none" stroke="#bcccdc" stroke-width="0.8" opacity="0.3"/>
<path d="M190,215.0 C280,215.0 470,544.0 560,544.0" fill="none" stroke="#9fb3c8" stroke-width="0.8" opacity="0.35"/>
<path d="M560,544.0 C640,544.0 820,687.0 760,687.0" fill="none" stroke="#bcccdc" stroke-width="0.8" opacity="0.3"/>
<path d="M190,215.0 C280,215.0 470,544.0 560,544.0" fill="none" stroke="#9fb3c8" stroke-width="0.8" opacity="0.35"/>
<path d="M190,215.0 C280,215.0 470,544.0 560,544.0" fill="none" stroke="#9fb3c8" stroke-width="0.8" opacity="0.35"/>
<path d="M190,215.0 C280,215.0 470,544.0 560,544.0" fill="none" stroke="#9fb3c8" stroke-width="0.8" opacity="0.35"/>
<path d="M190,215.0 C280,215.0 470,544.0 560,544.0" fill="none" stroke="#9fb3c8" stroke-width="0.8" opacity="0.35"/>
<path d="M560,544.0 C640,544.0 820,818.0 760,818.0" fill="none" stroke="#bcccdc" stroke-width="0.8" opacity="0.3"/>
<path d="M190,215.0 C280,215.0 470,544.0 560,544.0" fill="none" stroke="#9fb3c8" stroke-width="0.8" opacity="0.35"/>
<path d="M190,215.0 C280,215.0 470,544.0 560,544.0" fill="none" stroke="#9fb3c8" stroke-width="0.8" opacity="0.35"/>
<path d="M560,544.0 C640,544.0 820,244.0 760,244.0" fill="none" stroke="#bcccdc" stroke-width="0.8" opacity="0.3"/>
<path d="M190,215.0 C280,215.0 470,544.0 560,544.0" fill="none" stroke="#9fb3c8" stroke-width="0.8" opacity="0.35"/>
<path d="M560,544.0 C640,544.0 820,244.0 760,244.0" fill="none" stroke="#bcccdc" stroke-width="0.8" opacity="0.3"/>
<path d="M190,215.0 C280,215.0 470,544.0 560,544.0" fill="none" stroke="#9fb3c8" stroke-width="0.8" opacity="0.35"/>
<path d="M560,544.0 C640,544.0 820,541.0 760,541.0" fill="none" stroke="#bcccdc" stroke-width="0.8" opacity="0.3"/>
<path d="M190,215.0 C280,215.0 470,544.0 560,544.0" fill="none" stroke="#9fb3c8" stroke-width="0.8" opacity="0.35"/>
<path d="M190,215.0 C280,215.0 470,544.0 560,544.0" fill="none" stroke="#9fb3c8" stroke-width="0.8" opacity="0.35"/>
<path d="M190,215.0 C280,215.0 470,544.0 560,544.0" fill="none" stroke="#9fb3c8" stroke-width="0.8" opacity="0.35"/>
<path d="M190,215.0 C280,215.0 470,544.0 560,544.0" fill="none" stroke="#9fb3c8" stroke-width="0.8" opacity="0.35"/>
<path d="M190,215.0 C280,215.0 470,544.0 560,544.0" fill="none" stroke="#9fb3c8" stroke-width="0.8" opacity="0.35"/>
<path d="M560,544.0 C640,544.0 820,244.0 760,244.0" fill="none" stroke="#bcccdc" stroke-width="0.8" opacity="0.3"/>
<path d="M190,215.0 C280,215.0 470,544.0 560,544.0" fill="none" stroke="#9fb3c8" stroke-width="0.8" opacity="0.35"/>
<path d="M560,544.0 C640,544.0 820,244.0 760,244.0" fill="none" stroke="#bcccdc" stroke-width="0.8" opacity="0.3"/>
<path d="M190,215.0 C280,215.0 470,544.0 560,544.0" fill="none" stroke="#9fb3c8" stroke-width="0.8" opacity="0.35"/>
<path d="M560,544.0 C640,544.0 820,244.0 760,244.0" fill="none" stroke="#bcccdc" stroke-width="0.8" opacity="0.3"/>
<path d="M190,215.0 C280,215.0 470,544.0 560,544.0" fill="none" stroke="#9fb3c8" stroke-width="0.8" opacity="0.35"/>
<path d="M190,215.0 C280,215.0 470,544.0 560,544.0" fill="none" stroke="#9fb3c8" stroke-width="0.8" opacity="0.35"/>
<path d="M560,544.0 C640,544.0 820,244.0 760,244.0" fill="none" stroke="#bcccdc" stroke-width="0.8" opacity="0.3"/>
<path d="M190,215.0 C280,215.0 470,544.0 560,544.0" fill="none" stroke="#9fb3c8" stroke-width="0.8" opacity="0.35"/>
<path d="M560,544.0 C640,544.0 820,244.0 760,244.0" fill="none" stroke="#bcccdc" stroke-width="0.8" opacity="0.3"/>
<path d="M190,215.0 C280,215.0 470,544.0 560,544.0" fill="none" stroke="#9fb3c8" stroke-width="0.8" opacity="0.35"/>
<path d="M190,215.0 C280,215.0 470,544.0 560,544.0" fill="none" stroke="#9fb3c8" stroke-width="0.8" opacity="0.35"/>
<path d="M190,215.0 C280,215.0 470,544.0 560,544.0" fill="none" stroke="#9fb3c8" stroke-width="0.8" opacity="0.35"/>
<path d="M560,544.0 C640,544.0 820,244.0 760,244.0" fill="none" stroke="#bcccdc" stroke-width="0.8" opacity="0.3"/>
<path d="M190,215.0 C280,215.0 470,544.0 560,544.0" fill="none" stroke="#9fb3c8" stroke-width="0.8" opacity="0.35"/>
<path d="M190,215.0 C280,215.0 470,544.0 560,544.0" fill="none" stroke="#9fb3c8" stroke-width="0.8" opacity="0.35"/>
<path d="M560,544.0 C640,544.0 820,244.0 760,244.0" fill="none" stroke="#bcccdc" stroke-width="0.8" opacity="0.3"/>
<path d="M190,215.0 C280,215.0 470,544.0 560,544.0" fill="none" stroke="#9fb3c8" stroke-width="0.8" opacity="0.35"/>
<path d="M560,544.0 C640,544.0 820,244.0 760,244.0" fill="none" stroke="#bcccdc" stroke-width="0.8" opacity="0.3"/>
<path d="M190,215.0 C280,215.0 470,544.0 560,544.0" fill="none" stroke="#9fb3c8" stroke-width="0.8" opacity="0.35"/>
<path d="M560,544.0 C640,544.0 820,818.0 760,818.0" fill="none" stroke="#bcccdc" stroke-width="0.8" opacity="0.3"/>
<path d="M190,215.0 C280,215.0 470,544.0 560,544.0" fill="none" stroke="#9fb3c8" stroke-width="0.8" opacity="0.35"/>
<path d="M190,215.0 C280,215.0 470,544.0 560,544.0" fill="none" stroke="#9fb3c8" stroke-width="0.8" opacity="0.35"/>
<path d="M190,215.0 C280,215.0 470,544.0 560,544.0" fill="none" stroke="#9fb3c8" stroke-width="0.8" opacity="0.35"/>
<path d="M190,215.0 C280,215.0 470,544.0 560,544.0" fill="none" stroke="#9fb3c8" stroke-width="0.8" opacity="0.35"/>
<path d="M190,215.0 C280,215.0 470,544.0 560,544.0" fill="none" stroke="#9fb3c8" stroke-width="0.8" opacity="0.35"/>
<path d="M560,544.0 C640,544.0 820,244.0 760,244.0" fill="none" stroke="#bcccdc" stroke-width="0.8" opacity="0.3"/>
<path d="M190,215.0 C280,215.0 470,544.0 560,544.0" fill="none" stroke="#9fb3c8" stroke-width="0.8" opacity="0.35"/>
<path d="M560,544.0 C640,544.0 820,244.0 760,244.0" fill="none" stroke="#bcccdc" stroke-width="0.8" opacity="0.3"/>
<path d="M190,215.0 C280,215.0 470,544.0 560,544.0" fill="none" stroke="#9fb3c8" stroke-width="0.8" opacity="0.35"/>
<path d="M190,215.0 C280,215.0 470,544.0 560,544.0" fill="none" stroke="#9fb3c8" stroke-width="0.8" opacity="0.35"/>
<path d="M190,215.0 C280,215.0 470,544.0 560,544.0" fill="none" stroke="#9fb3c8" stroke-width="0.8" opacity="0.35"/>
<path d="M190,215.0 C280,215.0 470,544.0 560,544.0" fill="none" stroke="#9fb3c8" stroke-width="0.8" opacity="0.35"/>
<path d="M560,544.0 C640,544.0 820,244.0 760,244.0" fill="none" stroke="#bcccdc" stroke-width="0.8" opacity="0.3"/>
<path d="M190,215.0 C280,215.0 470,544.0 560,544.0" fill="none" stroke="#9fb3c8" stroke-width="0.8" opacity="0.35"/>
<path d="M560,544.0 C640,544.0 820,244.0 760,244.0" fill="none" stroke="#bcccdc" stroke-width="0.8" opacity="0.3"/>
<path d="M190,215.0 C280,215.0 470,544.0 560,544.0" fill="none" stroke="#9fb3c8" stroke-width="0.8" opacity="0.35"/>
<path d="M190,215.0 C280,215.0 470,544.0 560,544.0" fill="none" stroke="#9fb3c8" stroke-width="0.8" opacity="0.35"/>
<path d="M560,544.0 C640,544.0 820,244.0 760,244.0" fill="none" stroke="#bcccdc" stroke-width="0.8" opacity="0.3"/>
<path d="M190,215.0 C280,215.0 470,544.0 560,544.0" fill="none" stroke="#9fb3c8" stroke-width="0.8" opacity="0.35"/>
<path d="M560,544.0 C640,544.0 820,541.0 760,541.0" fill="none" stroke="#bcccdc" stroke-width="0.8" opacity="0.3"/>
<path d="M190,215.0 C280,215.0 470,544.0 560,544.0" fill="none" stroke="#9fb3c8" stroke-width="0.8" opacity="0.35"/>
<path d="M560,544.0 C640,544.0 820,877.0 760,877.0" fill="none" stroke="#bcccdc" stroke-width="0.8" opacity="0.3"/>
<path d="M190,215.0 C280,215.0 470,544.0 560,544.0" fill="none" stroke="#9fb3c8" stroke-width="0.8" opacity="0.35"/>
<path d="M560,544.0 C640,544.0 820,541.0 760,541.0" fill="none" stroke="#bcccdc" stroke-width="0.8" opacity="0.3"/>
<path d="M190,215.0 C280,215.0 470,544.0 560,544.0" fill="none" stroke="#9fb3c8" stroke-width="0.8" opacity="0.35"/>
<path d="M190,215.0 C280,215.0 470,544.0 560,544.0" fill="none" stroke="#9fb3c8" stroke-width="0.8" opacity="0.35"/>
<path d="M560,544.0 C640,544.0 820,244.0 760,244.0" fill="none" stroke="#bcccdc" stroke-width="0.8" opacity="0.3"/>
<path d="M190,215.0 C280,215.0 470,544.0 560,544.0" fill="none" stroke="#9fb3c8" stroke-width="0.8" opacity="0.35"/>
<path d="M560,544.0 C640,544.0 820,541.0 760,541.0" fill="none" stroke="#bcccdc" stroke-width="0.8" opacity="0.3"/>
<path d="M190,215.0 C280,215.0 470,544.0 560,544.0" fill="none" stroke="#9fb3c8" stroke-width="0.8" opacity="0.35"/>
<path d="M560,544.0 C640,544.0 820,244.0 760,244.0" fill="none" stroke="#bcccdc" stroke-width="0.8" opacity="0.3"/>
<path d="M190,215.0 C280,215.0 470,544.0 560,544.0" fill="none" stroke="#9fb3c8" stroke-width="0.8" opacity="0.35"/>
<path d="M560,544.0 C640,544.0 820,244.0 760,244.0" fill="none" stroke="#bcccdc" stroke-width="0.8" opacity="0.3"/>
<path d="M190,215.0 C280,215.0 470,544.0 560,544.0" fill="none" stroke="#9fb3c8" stroke-width="0.8" opacity="0.35"/>
<path d="M560,544.0 C640,544.0 820,244.0 760,244.0" fill="none" stroke="#bcccdc" stroke-width="0.8" opacity="0.3"/>
<path d="M190,215.0 C280,215.0 470,544.0 560,544.0" fill="none" stroke="#9fb3c8" stroke-width="0.8" opacity="0.35"/>
<path d="M190,215.0 C280,215.0 470,544.0 560,544.0" fill="none" stroke="#9fb3c8" stroke-width="0.8" opacity="0.35"/>
<path d="M190,215.0 C280,215.0 470,544.0 560,544.0" fill="none" stroke="#9fb3c8" stroke-width="0.8" opacity="0.35"/>
<path d="M190,215.0 C280,215.0 470,544.0 560,544.0" fill="none" stroke="#9fb3c8" stroke-width="0.8" opacity="0.35"/>
<path d="M190,215.0 C280,215.0 470,544.0 560,544.0" fill="none" stroke="#9fb3c8" stroke-width="0.8" opacity="0.35"/>
<path d="M560,544.0 C640,544.0 820,244.0 760,244.0" fill="none" stroke="#bcccdc" stroke-width="0.8" opacity="0.3"/>
<path d="M190,215.0 C280,215.0 470,544.0 560,544.0" fill="none" stroke="#9fb3c8" stroke-width="0.8" opacity="0.35"/>
<path d="M560,544.0 C640,544.0 820,244.0 760,244.0" fill="none" stroke="#bcccdc" stroke-width="0.8" opacity="0.3"/>
<path d="M190,215.0 C280,215.0 470,544.0 560,544.0" fill="none" stroke="#9fb3c8" stroke-width="0.8" opacity="0.35"/>
<path d="M560,544.0 C640,544.0 820,754.0 760,754.0" fill="none" stroke="#bcccdc" stroke-width="0.8" opacity="0.3"/>
<path d="M190,215.0 C280,215.0 470,544.0 560,544.0" fill="none" stroke="#9fb3c8" stroke-width="0.8" opacity="0.35"/>
<path d="M560,544.0 C640,544.0 820,754.0 760,754.0" fill="none" stroke="#bcccdc" stroke-width="0.8" opacity="0.3"/>
<path d="M190,215.0 C280,215.0 470,544.0 560,544.0" fill="none" stroke="#9fb3c8" stroke-width="0.8" opacity="0.35"/>
<path d="M560,544.0 C640,544.0 820,244.0 760,244.0" fill="none" stroke="#bcccdc" stroke-width="0.8" opacity="0.3"/>
<path d="M190,215.0 C280,215.0 470,544.0 560,544.0" fill="none" stroke="#9fb3c8" stroke-width="0.8" opacity="0.35"/>
<path d="M560,544.0 C640,544.0 820,754.0 760,754.0" fill="none" stroke="#bcccdc" stroke-width="0.8" opacity="0.3"/>
<path d="M190,215.0 C280,215.0 470,544.0 560,544.0" fill="none" stroke="#9fb3c8" stroke-width="0.8" opacity="0.35"/>
<path d="M190,215.0 C280,215.0 470,544.0 560,544.0" fill="none" stroke="#9fb3c8" stroke-width="0.8" opacity="0.35"/>
<path d="M560,544.0 C640,544.0 820,244.0 760,244.0" fill="none" stroke="#bcccdc" stroke-width="0.8" opacity="0.3"/>
<path d="M190,215.0 C280,215.0 470,544.0 560,544.0" fill="none" stroke="#9fb3c8" stroke-width="0.8" opacity="0.35"/>
<path d="M560,544.0 C640,544.0 820,687.0 760,687.0" fill="none" stroke="#bcccdc" stroke-width="0.8" opacity="0.3"/>
<path d="M190,215.0 C280,215.0 470,544.0 560,544.0" fill="none" stroke="#9fb3c8" stroke-width="0.8" opacity="0.35"/>
<path d="M190,215.0 C280,215.0 470,544.0 560,544.0" fill="none" stroke="#9fb3c8" stroke-width="0.8" opacity="0.35"/>
<path d="M190,215.0 C280,215.0 470,544.0 560,544.0" fill="none" stroke="#9fb3c8" stroke-width="0.8" opacity="0.35"/>
<path d="M560,544.0 C640,544.0 820,244.0 760,244.0" fill="none" stroke="#bcccdc" stroke-width="0.8" opacity="0.3"/>
<path d="M190,215.0 C280,215.0 470,544.0 560,544.0" fill="none" stroke="#9fb3c8" stroke-width="0.8" opacity="0.35"/>
<path d="M560,544.0 C640,544.0 820,244.0 760,244.0" fill="none" stroke="#bcccdc" stroke-width="0.8" opacity="0.3"/>
<path d="M190,215.0 C280,215.0 470,544.0 560,544.0" fill="none" stroke="#9fb3c8" stroke-width="0.8" opacity="0.35"/>
<path d="M560,544.0 C640,544.0 820,244.0 760,244.0" fill="none" stroke="#bcccdc" stroke-width="0.8" opacity="0.3"/>
<path d="M190,215.0 C280,215.0 470,544.0 560,544.0" fill="none" stroke="#9fb3c8" stroke-width="0.8" opacity="0.35"/>
<path d="M190,215.0 C280,215.0 470,544.0 560,544.0" fill="none" stroke="#9fb3c8" stroke-width="0.8" opacity="0.35"/>
<path d="M190,215.0 C280,215.0 470,544.0 560,544.0" fill="none" stroke="#9fb3c8" stroke-width="0.8" opacity="0.35"/>
<path d="M560,544.0 C640,544.0 820,244.0 760,244.0" fill="none" stroke="#bcccdc" stroke-width="0.8" opacity="0.3"/>
<path d="M190,215.0 C280,215.0 470,544.0 560,544.0" fill="none" stroke="#9fb3c8" stroke-width="0.8" opacity="0.35"/>
<path d="M560,544.0 C640,544.0 820,244.0 760,244.0" fill="none" stroke="#bcccdc" stroke-width="0.8" opacity="0.3"/>
<path d="M190,215.0 C280,215.0 470,544.0 560,544.0" fill="none" stroke="#9fb3c8" stroke-width="0.8" opacity="0.35"/>
<path d="M560,544.0 C640,544.0 820,456.0 760,456.0" fill="none" stroke="#bcccdc" stroke-width="0.8" opacity="0.3"/>
<path d="M190,215.0 C280,215.0 470,544.0 560,544.0" fill="none" stroke="#9fb3c8" stroke-width="0.8" opacity="0.35"/>
<path d="M560,544.0 C640,544.0 820,244.0 760,244.0" fill="none" stroke="#bcccdc" stroke-width="0.8" opacity="0.3"/>
<path d="M190,215.0 C280,215.0 470,544.0 560,544.0" fill="none" stroke="#9fb3c8" stroke-width="0.8" opacity="0.35"/>
<path d="M190,215.0 C280,215.0 470,544.0 560,544.0" fill="none" stroke="#9fb3c8" stroke-width="0.8" opacity="0.35"/>
<path d="M560,544.0 C640,544.0 820,244.0 760,244.0" fill="none" stroke="#bcccdc" stroke-width="0.8" opacity="0.3"/>
<path d="M190,215.0 C280,215.0 470,544.0 560,544.0" fill="none" stroke="#9fb3c8" stroke-width="0.8" opacity="0.35"/>
<path d="M560,544.0 C640,544.0 820,244.0 760,244.0" fill="none" stroke="#bcccdc" stroke-width="0.8" opacity="0.3"/>
<path d="M190,215.0 C280,215.0 470,544.0 560,544.0" fill="none" stroke="#9fb3c8" stroke-width="0.8" opacity="0.35"/>
<path d="M560,544.0 C640,544.0 820,244.0 760,244.0" fill="none" stroke="#bcccdc" stroke-width="0.8" opacity="0.3"/>
<path d="M190,215.0 C280,215.0 470,544.0 560,544.0" fill="none" stroke="#9fb3c8" stroke-width="0.8" opacity="0.35"/>
<path d="M190,215.0 C280,215.0 470,544.0 560,544.0" fill="none" stroke="#9fb3c8" stroke-width="0.8" opacity="0.35"/>
<path d="M190,215.0 C280,215.0 470,544.0 560,544.0" fill="none" stroke="#9fb3c8" stroke-width="0.8" opacity="0.35"/>
<path d="M560,544.0 C640,544.0 820,244.0 760,244.0" fill="none" stroke="#bcccdc" stroke-width="0.8" opacity="0.3"/>
<path d="M190,215.0 C280,215.0 470,544.0 560,544.0" fill="none" stroke="#9fb3c8" stroke-width="0.8" opacity="0.35"/>
<path d="M190,215.0 C280,215.0 470,544.0 560,544.0" fill="none" stroke="#9fb3c8" stroke-width="0.8" opacity="0.35"/>
<path d="M190,215.0 C280,215.0 470,544.0 560,544.0" fill="none" stroke="#9fb3c8" stroke-width="0.8" opacity="0.35"/>
<path d="M560,544.0 C640,544.0 820,244.0 760,244.0" fill="none" stroke="#bcccdc" stroke-width="0.8" opacity="0.3"/>
<path d="M190,215.0 C280,215.0 470,544.0 560,544.0" fill="none" stroke="#9fb3c8" stroke-width="0.8" opacity="0.35"/>
<path d="M190,215.0 C280,215.0 470,544.0 560,544.0" fill="none" stroke="#9fb3c8" stroke-width="0.8" opacity="0.35"/>
<path d="M190,215.0 C280,215.0 470,544.0 560,544.0" fill="none" stroke="#9fb3c8" stroke-width="0.8" opacity="0.35"/>
<path d="M560,544.0 C640,544.0 820,244.0 760,244.0" fill="none" stroke="#bcccdc" stroke-width="0.8" opacity="0.3"/>
<path d="M190,215.0 C280,215.0 470,544.0 560,544.0" fill="none" stroke="#9fb3c8" stroke-width="0.8" opacity="0.35"/>
<path d="M560,544.0 C640,544.0 820,244.0 760,244.0" fill="none" stroke="#bcccdc" stroke-width="0.8" opacity="0.3"/>
<path d="M190,215.0 C280,215.0 470,544.0 560,544.0" fill="none" stroke="#9fb3c8" stroke-width="0.8" opacity="0.35"/>
<path d="M190,215.0 C280,215.0 470,544.0 560,544.0" fill="none" stroke="#9fb3c8" stroke-width="0.8" opacity="0.35"/>
<path d="M560,544.0 C640,544.0 820,244.0 760,244.0" fill="none" stroke="#bcccdc" stroke-width="0.8" opacity="0.3"/>
<path d="M190,755.0 C280,755.0 470,1035.0 560,1035.0" fill="none" stroke="#9fb3c8" stroke-width="0.8" opacity="0.35"/>
<path d="M190,755.0 C280,755.0 470,1035.0 560,1035.0" fill="none" stroke="#9fb3c8" stroke-width="0.8" opacity="0.35"/>
<path d="M190,755.0 C280,755.0 470,1035.0 560,1035.0" fill="none" stroke="#9fb3c8" stroke-width="0.8" opacity="0.35"/>
<path d="M560,1035.0 C640,1035.0 820,244.0 760,244.0" fill="none" stroke="#bcccdc" stroke-width="0.8" opacity="0.3"/>
<path d="M190,755.0 C280,755.0 470,1078.0 560,1078.0" fill="none" stroke="#9fb3c8" stroke-width="0.8" opacity="0.35"/>
<path d="M560,1078.0 C640,1078.0 820,456.0 760,456.0" fill="none" stroke="#bcccdc" stroke-width="0.8" opacity="0.3"/>
<path d="M190,755.0 C280,755.0 470,544.0 560,544.0" fill="none" stroke="#9fb3c8" stroke-width="0.8" opacity="0.35"/>
<path d="M190,755.0 C280,755.0 470,544.0 560,544.0" fill="none" stroke="#9fb3c8" stroke-width="0.8" opacity="0.35"/>
<path d="M560,544.0 C640,544.0 820,456.0 760,456.0" fill="none" stroke="#bcccdc" stroke-width="0.8" opacity="0.3"/>
<path d="M190,755.0 C280,755.0 470,544.0 560,544.0" fill="none" stroke="#9fb3c8" stroke-width="0.8" opacity="0.35"/>
<path d="M190,755.0 C280,755.0 470,544.0 560,544.0" fill="none" stroke="#9fb3c8" stroke-width="0.8" opacity="0.35"/>
<path d="M190,755.0 C280,755.0 470,544.0 560,544.0" fill="none" stroke="#9fb3c8" stroke-width="0.8" opacity="0.35"/>
<path d="M560,544.0 C640,544.0 820,244.0 760,244.0" fill="none" stroke="#bcccdc" stroke-width="0.8" opacity="0.3"/>
<path d="M190,755.0 C280,755.0 470,544.0 560,544.0" fill="none" stroke="#9fb3c8" stroke-width="0.8" opacity="0.35"/>
<path d="M190,755.0 C280,755.0 470,544.0 560,544.0" fill="none" stroke="#9fb3c8" stroke-width="0.8" opacity="0.35"/>
<path d="M560,544.0 C640,544.0 820,616.0 760,616.0" fill="none" stroke="#bcccdc" stroke-width="0.8" opacity="0.3"/>
<path d="M190,755.0 C280,755.0 470,544.0 560,544.0" fill="none" stroke="#9fb3c8" stroke-width="0.8" opacity="0.35"/>
<path d="M560,544.0 C640,544.0 820,244.0 760,244.0" fill="none" stroke="#bcccdc" stroke-width="0.8" opacity="0.3"/>
<path d="M190,755.0 C280,755.0 470,544.0 560,544.0" fill="none" stroke="#9fb3c8" stroke-width="0.8" opacity="0.35"/>
<path d="M560,544.0 C640,544.0 820,456.0 760,456.0" fill="none" stroke="#bcccdc" stroke-width="0.8" opacity="0.3"/>
<path d="M190,755.0 C280,755.0 470,544.0 560,544.0" fill="none" stroke="#9fb3c8" stroke-width="0.8" opacity="0.35"/>
<path d="M560,544.0 C640,544.0 820,456.0 760,456.0" fill="none" stroke="#bcccdc" stroke-width="0.8" opacity="0.3"/>
<path d="M190,755.0 C280,755.0 470,544.0 560,544.0" fill="none" stroke="#9fb3c8" stroke-width="0.8" opacity="0.35"/>
<path d="M560,544.0 C640,544.0 820,244.0 760,244.0" fill="none" stroke="#bcccdc" stroke-width="0.8" opacity="0.3"/>
<path d="M190,755.0 C280,755.0 470,544.0 560,544.0" fill="none" stroke="#9fb3c8" stroke-width="0.8" opacity="0.35"/>
<path d="M560,544.0 C640,544.0 820,877.0 760,877.0" fill="none" stroke="#bcccdc" stroke-width="0.8" opacity="0.3"/>
<path d="M190,755.0 C280,755.0 470,544.0 560,544.0" fill="none" stroke="#9fb3c8" stroke-width="0.8" opacity="0.35"/>
<path d="M560,544.0 C640,544.0 820,244.0 760,244.0" fill="none" stroke="#bcccdc" stroke-width="0.8" opacity="0.3"/>
<path d="M190,755.0 C280,755.0 470,544.0 560,544.0" fill="none" stroke="#9fb3c8" stroke-width="0.8" opacity="0.35"/>
<path d="M560,544.0 C640,544.0 820,456.0 760,456.0" fill="none" stroke="#bcccdc" stroke-width="0.8" opacity="0.3"/>
<path d="M190,755.0 C280,755.0 470,544.0 560,544.0" fill="none" stroke="#9fb3c8" stroke-width="0.8" opacity="0.35"/>
<path d="M560,544.0 C640,544.0 820,541.0 760,541.0" fill="none" stroke="#bcccdc" stroke-width="0.8" opacity="0.3"/>
<path d="M190,755.0 C280,755.0 470,544.0 560,544.0" fill="none" stroke="#9fb3c8" stroke-width="0.8" opacity="0.35"/>
<path d="M560,544.0 C640,544.0 820,818.0 760,818.0" fill="none" stroke="#bcccdc" stroke-width="0.8" opacity="0.3"/>
<path d="M190,755.0 C280,755.0 470,544.0 560,544.0" fill="none" stroke="#9fb3c8" stroke-width="0.8" opacity="0.35"/>
<path d="M560,544.0 C640,544.0 820,877.0 760,877.0" fill="none" stroke="#bcccdc" stroke-width="0.8" opacity="0.3"/>
<path d="M190,755.0 C280,755.0 470,544.0 560,544.0" fill="none" stroke="#9fb3c8" stroke-width="0.8" opacity="0.35"/>
<path d="M560,544.0 C640,544.0 820,456.0 760,456.0" fill="none" stroke="#bcccdc" stroke-width="0.8" opacity="0.3"/>
<path d="M190,755.0 C280,755.0 470,544.0 560,544.0" fill="none" stroke="#9fb3c8" stroke-width="0.8" opacity="0.35"/>
<path d="M560,544.0 C640,544.0 820,456.0 760,456.0" fill="none" stroke="#bcccdc" stroke-width="0.8" opacity="0.3"/>
<path d="M190,755.0 C280,755.0 470,544.0 560,544.0" fill="none" stroke="#9fb3c8" stroke-width="0.8" opacity="0.35"/>
<path d="M560,544.0 C640,544.0 820,541.0 760,541.0" fill="none" stroke="#bcccdc" stroke-width="0.8" opacity="0.3"/>
<path d="M190,755.0 C280,755.0 470,544.0 560,544.0" fill="none" stroke="#9fb3c8" stroke-width="0.8" opacity="0.35"/>
<path d="M560,544.0 C640,544.0 820,616.0 760,616.0" fill="none" stroke="#bcccdc" stroke-width="0.8" opacity="0.3"/>
<path d="M190,755.0 C280,755.0 470,544.0 560,544.0" fill="none" stroke="#9fb3c8" stroke-width="0.8" opacity="0.35"/>
<path d="M560,544.0 C640,544.0 820,456.0 760,456.0" fill="none" stroke="#bcccdc" stroke-width="0.8" opacity="0.3"/>
<path d="M190,755.0 C280,755.0 470,544.0 560,544.0" fill="none" stroke="#9fb3c8" stroke-width="0.8" opacity="0.35"/>
<path d="M560,544.0 C640,544.0 820,456.0 760,456.0" fill="none" stroke="#bcccdc" stroke-width="0.8" opacity="0.3"/>
<path d="M190,755.0 C280,755.0 470,544.0 560,544.0" fill="none" stroke="#9fb3c8" stroke-width="0.8" opacity="0.35"/>
<path d="M190,755.0 C280,755.0 470,544.0 560,544.0" fill="none" stroke="#9fb3c8" stroke-width="0.8" opacity="0.35"/>
<path d="M190,755.0 C280,755.0 470,544.0 560,544.0" fill="none" stroke="#9fb3c8" stroke-width="0.8" opacity="0.35"/>
<path d="M560,544.0 C640,544.0 820,244.0 760,244.0" fill="none" stroke="#bcccdc" stroke-width="0.8" opacity="0.3"/>
<path d="M190,755.0 C280,755.0 470,544.0 560,544.0" fill="none" stroke="#9fb3c8" stroke-width="0.8" opacity="0.35"/>
<path d="M190,755.0 C280,755.0 470,544.0 560,544.0" fill="none" stroke="#9fb3c8" stroke-width="0.8" opacity="0.35"/>
<path d="M560,544.0 C640,544.0 820,456.0 760,456.0" fill="none" stroke="#bcccdc" stroke-width="0.8" opacity="0.3"/>
<path d="M190,755.0 C280,755.0 470,544.0 560,544.0" fill="none" stroke="#9fb3c8" stroke-width="0.8" opacity="0.35"/>
<path d="M560,544.0 C640,544.0 820,456.0 760,456.0" fill="none" stroke="#bcccdc" stroke-width="0.8" opacity="0.3"/>
<path d="M190,755.0 C280,755.0 470,544.0 560,544.0" fill="none" stroke="#9fb3c8" stroke-width="0.8" opacity="0.35"/>
<path d="M560,544.0 C640,544.0 820,456.0 760,456.0" fill="none" stroke="#bcccdc" stroke-width="0.8" opacity="0.3"/>
<path d="M190,755.0 C280,755.0 470,544.0 560,544.0" fill="none" stroke="#9fb3c8" stroke-width="0.8" opacity="0.35"/>
<path d="M190,755.0 C280,755.0 470,544.0 560,544.0" fill="none" stroke="#9fb3c8" stroke-width="0.8" opacity="0.35"/>
<path d="M560,544.0 C640,544.0 820,456.0 760,456.0" fill="none" stroke="#bcccdc" stroke-width="0.8" opacity="0.3"/>
<path d="M190,755.0 C280,755.0 470,544.0 560,544.0" fill="none" stroke="#9fb3c8" stroke-width="0.8" opacity="0.35"/>
<path d="M560,544.0 C640,544.0 820,244.0 760,244.0" fill="none" stroke="#bcccdc" stroke-width="0.8" opacity="0.3"/>
<path d="M190,755.0 C280,755.0 470,544.0 560,544.0" fill="none" stroke="#9fb3c8" stroke-width="0.8" opacity="0.35"/>
<path d="M560,544.0 C640,544.0 820,244.0 760,244.0" fill="none" stroke="#bcccdc" stroke-width="0.8" opacity="0.3"/>
<path d="M190,755.0 C280,755.0 470,544.0 560,544.0" fill="none" stroke="#9fb3c8" stroke-width="0.8" opacity="0.35"/>
<path d="M560,544.0 C640,544.0 820,244.0 760,244.0" fill="none" stroke="#bcccdc" stroke-width="0.8" opacity="0.3"/>
<path d="M190,755.0 C280,755.0 470,544.0 560,544.0" fill="none" stroke="#9fb3c8" stroke-width="0.8" opacity="0.35"/>
<path d="M560,544.0 C640,544.0 820,456.0 760,456.0" fill="none" stroke="#bcccdc" stroke-width="0.8" opacity="0.3"/>
<path d="M190,755.0 C280,755.0 470,544.0 560,544.0" fill="none" stroke="#9fb3c8" stroke-width="0.8" opacity="0.35"/>
<path d="M560,544.0 C640,544.0 820,541.0 760,541.0" fill="none" stroke="#bcccdc" stroke-width="0.8" opacity="0.3"/>
<path d="M190,755.0 C280,755.0 470,544.0 560,544.0" fill="none" stroke="#9fb3c8" stroke-width="0.8" opacity="0.35"/>
<path d="M190,755.0 C280,755.0 470,544.0 560,544.0" fill="none" stroke="#9fb3c8" stroke-width="0.8" opacity="0.35"/>
<path d="M560,544.0 C640,544.0 820,616.0 760,616.0" fill="none" stroke="#bcccdc" stroke-width="0.8" opacity="0.3"/>
<path d="M190,755.0 C280,755.0 470,544.0 560,544.0" fill="none" stroke="#9fb3c8" stroke-width="0.8" opacity="0.35"/>
<path d="M560,544.0 C640,544.0 820,616.0 760,616.0" fill="none" stroke="#bcccdc" stroke-width="0.8" opacity="0.3"/>
<path d="M190,755.0 C280,755.0 470,544.0 560,544.0" fill="none" stroke="#9fb3c8" stroke-width="0.8" opacity="0.35"/>
<path d="M190,755.0 C280,755.0 470,544.0 560,544.0" fill="none" stroke="#9fb3c8" stroke-width="0.8" opacity="0.35"/>
<path d="M560,544.0 C640,544.0 820,541.0 760,541.0" fill="none" stroke="#bcccdc" stroke-width="0.8" opacity="0.3"/>
<path d="M190,755.0 C280,755.0 470,544.0 560,544.0" fill="none" stroke="#9fb3c8" stroke-width="0.8" opacity="0.35"/>
<path d="M560,544.0 C640,544.0 820,244.0 760,244.0" fill="none" stroke="#bcccdc" stroke-width="0.8" opacity="0.3"/>
<path d="M190,755.0 C280,755.0 470,544.0 560,544.0" fill="none" stroke="#9fb3c8" stroke-width="0.8" opacity="0.35"/>
<path d="M560,544.0 C640,544.0 820,616.0 760,616.0" fill="none" stroke="#bcccdc" stroke-width="0.8" opacity="0.3"/>
<path d="M190,755.0 C280,755.0 470,544.0 560,544.0" fill="none" stroke="#9fb3c8" stroke-width="0.8" opacity="0.35"/>
<path d="M560,544.0 C640,544.0 820,244.0 760,244.0" fill="none" stroke="#bcccdc" stroke-width="0.8" opacity="0.3"/>
<path d="M190,755.0 C280,755.0 470,544.0 560,544.0" fill="none" stroke="#9fb3c8" stroke-width="0.8" opacity="0.35"/>
<path d="M560,544.0 C640,544.0 820,244.0 760,244.0" fill="none" stroke="#bcccdc" stroke-width="0.8" opacity="0.3"/>
<path d="M190,755.0 C280,755.0 470,544.0 560,544.0" fill="none" stroke="#9fb3c8" stroke-width="0.8" opacity="0.35"/>
<path d="M560,544.0 C640,544.0 820,616.0 760,616.0" fill="none" stroke="#bcccdc" stroke-width="0.8" opacity="0.3"/>
<path d="M190,755.0 C280,755.0 470,544.0 560,544.0" fill="none" stroke="#9fb3c8" stroke-width="0.8" opacity="0.35"/>
<path d="M560,544.0 C640,544.0 820,456.0 760,456.0" fill="none" stroke="#bcccdc" stroke-width="0.8" opacity="0.3"/>
<path d="M190,755.0 C280,755.0 470,544.0 560,544.0" fill="none" stroke="#9fb3c8" stroke-width="0.8" opacity="0.35"/>
<path d="M190,755.0 C280,755.0 470,544.0 560,544.0" fill="none" stroke="#9fb3c8" stroke-width="0.8" opacity="0.35"/>
<path d="M560,544.0 C640,544.0 820,456.0 760,456.0" fill="none" stroke="#bcccdc" stroke-width="0.8" opacity="0.3"/>
<path d="M190,755.0 C280,755.0 470,544.0 560,544.0" fill="none" stroke="#9fb3c8" stroke-width="0.8" opacity="0.35"/>
<path d="M560,544.0 C640,544.0 820,456.0 760,456.0" fill="none" stroke="#bcccdc" stroke-width="0.8" opacity="0.3"/>
<path d="M190,755.0 C280,755.0 470,544.0 560,544.0" fill="none" stroke="#9fb3c8" stroke-width="0.8" opacity="0.35"/>
<path d="M190,755.0 C280,755.0 470,544.0 560,544.0" fill="none" stroke="#9fb3c8" stroke-width="0.8" opacity="0.35"/>
<path d="M560,544.0 C640,544.0 820,456.0 760,456.0" fill="none" stroke="#bcccdc" stroke-width="0.8" opacity="0.3"/>
<path d="M190,755.0 C280,755.0 470,544.0 560,544.0" fill="none" stroke="#9fb3c8" stroke-width="0.8" opacity="0.35"/>
<path d="M560,544.0 C640,544.0 820,456.0 760,456.0" fill="none" stroke="#bcccdc" stroke-width="0.8" opacity="0.3"/>
<path d="M190,755.0 C280,755.0 470,544.0 560,544.0" fill="none" stroke="#9fb3c8" stroke-width="0.8" opacity="0.35"/>
<path d="M190,755.0 C280,755.0 470,544.0 560,544.0" fill="none" stroke="#9fb3c8" stroke-width="0.8" opacity="0.35"/>
<path d="M560,544.0 C640,544.0 820,456.0 760,456.0" fill="none" stroke="#bcccdc" stroke-width="0.8" opacity="0.3"/>
<path d="M190,755.0 C280,755.0 470,544.0 560,544.0" fill="none" stroke="#9fb3c8" stroke-width="0.8" opacity="0.35"/>
<path d="M560,544.0 C640,544.0 820,456.0 760,456.0" fill="none" stroke="#bcccdc" stroke-width="0.8" opacity="0.3"/>
<path d="M190,755.0 C280,755.0 470,544.0 560,544.0" fill="none" stroke="#9fb3c8" stroke-width="0.8" opacity="0.35"/>
<path d="M560,544.0 C640,544.0 820,244.0 760,244.0" fill="none" stroke="#bcccdc" stroke-width="0.8" opacity="0.3"/>
<path d="M190,755.0 C280,755.0 470,544.0 560,544.0" fill="none" stroke="#9fb3c8" stroke-width="0.8" opacity="0.35"/>
<path d="M190,755.0 C280,755.0 470,544.0 560,544.0" fill="none" stroke="#9fb3c8" stroke-width="0.8" opacity="0.35"/>
<path d="M190,755.0 C280,755.0 470,544.0 560,544.0" fill="none" stroke="#9fb3c8" stroke-width="0.8" opacity="0.35"/>
<path d="M560,544.0 C640,544.0 820,456.0 760,456.0" fill="none" stroke="#bcccdc" stroke-width="0.8" opacity="0.3"/>
<path d="M190,755.0 C280,755.0 470,544.0 560,544.0" fill="none" stroke="#9fb3c8" stroke-width="0.8" opacity="0.35"/>
<path d="M190,755.0 C280,755.0 470,544.0 560,544.0" fill="none" stroke="#9fb3c8" stroke-width="0.8" opacity="0.35"/>
<path d="M560,544.0 C640,544.0 820,244.0 760,244.0" fill="none" stroke="#bcccdc" stroke-width="0.8" opacity="0.3"/>
<path d="M190,755.0 C280,755.0 470,544.0 560,544.0" fill="none" stroke="#9fb3c8" stroke-width="0.8" opacity="0.35"/>
<path d="M560,544.0 C640,544.0 820,456.0 760,456.0" fill="none" stroke="#bcccdc" stroke-width="0.8" opacity="0.3"/>
<path d="M190,755.0 C280,755.0 470,544.0 560,544.0" fill="none" stroke="#9fb3c8" stroke-width="0.8" opacity="0.35"/>
<path d="M560,544.0 C640,544.0 820,244.0 760,244.0" fill="none" stroke="#bcccdc" stroke-width="0.8" opacity="0.3"/>
<path d="M190,755.0 C280,755.0 470,544.0 560,544.0" fill="none" stroke="#9fb3c8" stroke-width="0.8" opacity="0.35"/>
<path d="M560,544.0 C640,544.0 820,244.0 760,244.0" fill="none" stroke="#bcccdc" stroke-width="0.8" opacity="0.3"/>
<path d="M190,755.0 C280,755.0 470,544.0 560,544.0" fill="none" stroke="#9fb3c8" stroke-width="0.8" opacity="0.35"/>
<path d="M560,544.0 C640,544.0 820,244.0 760,244.0" fill="none" stroke="#bcccdc" stroke-width="0.8" opacity="0.3"/>
<path d="M190,755.0 C280,755.0 470,544.0 560,544.0" fill="none" stroke="#9fb3c8" stroke-width="0.8" opacity="0.35"/>
<path d="M190,755.0 C280,755.0 470,544.0 560,544.0" fill="none" stroke="#9fb3c8" stroke-width="0.8" opacity="0.35"/>
<path d="M560,544.0 C640,544.0 820,244.0 760,244.0" fill="none" stroke="#bcccdc" stroke-width="0.8" opacity="0.3"/>
<path d="M190,755.0 C280,755.0 470,544.0 560,544.0" fill="none" stroke="#9fb3c8" stroke-width="0.8" opacity="0.35"/>
<path d="M190,755.0 C280,755.0 470,544.0 560,544.0" fill="none" stroke="#9fb3c8" stroke-width="0.8" opacity="0.35"/>
<path d="M190,755.0 C280,755.0 470,544.0 560,544.0" fill="none" stroke="#9fb3c8" stroke-width="0.8" opacity="0.35"/>
<path d="M190,755.0 C280,755.0 470,544.0 560,544.0" fill="none" stroke="#9fb3c8" stroke-width="0.8" opacity="0.35"/>
<path d="M190,755.0 C280,755.0 470,544.0 560,544.0" fill="none" stroke="#9fb3c8" stroke-width="0.8" opacity="0.35"/>
<path d="M560,544.0 C640,544.0 820,244.0 760,244.0" fill="none" stroke="#bcccdc" stroke-width="0.8" opacity="0.3"/>
<path d="M190,755.0 C280,755.0 470,544.0 560,544.0" fill="none" stroke="#9fb3c8" stroke-width="0.8" opacity="0.35"/>
<path d="M560,544.0 C640,544.0 820,244.0 760,244.0" fill="none" stroke="#bcccdc" stroke-width="0.8" opacity="0.3"/>
<path d="M190,755.0 C280,755.0 470,544.0 560,544.0" fill="none" stroke="#9fb3c8" stroke-width="0.8" opacity="0.35"/>
<path d="M560,544.0 C640,544.0 820,244.0 760,244.0" fill="none" stroke="#bcccdc" stroke-width="0.8" opacity="0.3"/>
<path d="M190,755.0 C280,755.0 470,544.0 560,544.0" fill="none" stroke="#9fb3c8" stroke-width="0.8" opacity="0.35"/>
<path d="M560,544.0 C640,544.0 820,456.0 760,456.0" fill="none" stroke="#bcccdc" stroke-width="0.8" opacity="0.3"/>
<path d="M190,755.0 C280,755.0 470,544.0 560,544.0" fill="none" stroke="#9fb3c8" stroke-width="0.8" opacity="0.35"/>
<path d="M560,544.0 C640,544.0 820,244.0 760,244.0" fill="none" stroke="#bcccdc" stroke-width="0.8" opacity="0.3"/>
<path d="M190,755.0 C280,755.0 470,544.0 560,544.0" fill="none" stroke="#9fb3c8" stroke-width="0.8" opacity="0.35"/>
<path d="M560,544.0 C640,544.0 820,456.0 760,456.0" fill="none" stroke="#bcccdc" stroke-width="0.8" opacity="0.3"/>
<path d="M190,755.0 C280,755.0 470,544.0 560,544.0" fill="none" stroke="#9fb3c8" stroke-width="0.8" opacity="0.35"/>
<path d="M190,755.0 C280,755.0 470,544.0 560,544.0" fill="none" stroke="#9fb3c8" stroke-width="0.8" opacity="0.35"/>
<path d="M190,755.0 C280,755.0 470,544.0 560,544.0" fill="none" stroke="#9fb3c8" stroke-width="0.8" opacity="0.35"/>
<path d="M560,544.0 C640,544.0 820,244.0 760,244.0" fill="none" stroke="#bcccdc" stroke-width="0.8" opacity="0.3"/>
<path d="M190,755.0 C280,755.0 470,544.0 560,544.0" fill="none" stroke="#9fb3c8" stroke-width="0.8" opacity="0.35"/>
<path d="M190,755.0 C280,755.0 470,544.0 560,544.0" fill="none" stroke="#9fb3c8" stroke-width="0.8" opacity="0.35"/>
<path d="M560,544.0 C640,544.0 820,456.0 760,456.0" fill="none" stroke="#bcccdc" stroke-width="0.8" opacity="0.3"/>
<path d="M190,755.0 C280,755.0 470,544.0 560,544.0" fill="none" stroke="#9fb3c8" stroke-width="0.8" opacity="0.35"/>
<path d="M560,544.0 C640,544.0 820,754.0 760,754.0" fill="none" stroke="#bcccdc" stroke-width="0.8" opacity="0.3"/>
<path d="M190,755.0 C280,755.0 470,544.0 560,544.0" fill="none" stroke="#9fb3c8" stroke-width="0.8" opacity="0.35"/>
<path d="M560,544.0 C640,544.0 820,244.0 760,244.0" fill="none" stroke="#bcccdc" stroke-width="0.8" opacity="0.3"/>
<path d="M190,755.0 C280,755.0 470,544.0 560,544.0" fill="none" stroke="#9fb3c8" stroke-width="0.8" opacity="0.35"/>
<path d="M560,544.0 C640,544.0 820,244.0 760,244.0" fill="none" stroke="#bcccdc" stroke-width="0.8" opacity="0.3"/>
<path d="M190,755.0 C280,755.0 470,544.0 560,544.0" fill="none" stroke="#9fb3c8" stroke-width="0.8" opacity="0.35"/>
<path d="M560,544.0 C640,544.0 820,244.0 760,244.0" fill="none" stroke="#bcccdc" stroke-width="0.8" opacity="0.3"/>
<path d="M190,755.0 C280,755.0 470,544.0 560,544.0" fill="none" stroke="#9fb3c8" stroke-width="0.8" opacity="0.35"/>
<path d="M190,755.0 C280,755.0 470,544.0 560,544.0" fill="none" stroke="#9fb3c8" stroke-width="0.8" opacity="0.35"/>
<path d="M560,544.0 C640,544.0 820,244.0 760,244.0" fill="none" stroke="#bcccdc" stroke-width="0.8" opacity="0.3"/>
<path d="M190,755.0 C280,755.0 470,544.0 560,544.0" fill="none" stroke="#9fb3c8" stroke-width="0.8" opacity="0.35"/>
<path d="M560,544.0 C640,544.0 820,244.0 760,244.0" fill="none" stroke="#bcccdc" stroke-width="0.8" opacity="0.3"/>
<path d="M190,755.0 C280,755.0 470,544.0 560,544.0" fill="none" stroke="#9fb3c8" stroke-width="0.8" opacity="0.35"/>
<path d="M560,544.0 C640,544.0 820,244.0 760,244.0" fill="none" stroke="#bcccdc" stroke-width="0.8" opacity="0.3"/>
<path d="M190,755.0 C280,755.0 470,544.0 560,544.0" fill="none" stroke="#9fb3c8" stroke-width="0.8" opacity="0.35"/>
<path d="M560,544.0 C640,544.0 820,541.0 760,541.0" fill="none" stroke="#bcccdc" stroke-width="0.8" opacity="0.3"/>
<path d="M190,755.0 C280,755.0 470,544.0 560,544.0" fill="none" stroke="#9fb3c8" stroke-width="0.8" opacity="0.35"/>
<path d="M560,544.0 C640,544.0 820,541.0 760,541.0" fill="none" stroke="#bcccdc" stroke-width="0.8" opacity="0.3"/>
<path d="M190,755.0 C280,755.0 470,544.0 560,544.0" fill="none" stroke="#9fb3c8" stroke-width="0.8" opacity="0.35"/>
<path d="M190,755.0 C280,755.0 470,544.0 560,544.0" fill="none" stroke="#9fb3c8" stroke-width="0.8" opacity="0.35"/>
<path d="M560,544.0 C640,544.0 820,244.0 760,244.0" fill="none" stroke="#bcccdc" stroke-width="0.8" opacity="0.3"/>
</svg>
