<svg xmlns="http://www.w3.org/2000/svg" width="976" height="232" viewBox="0 0 976 232" role="img">
<title>Source by UOGTO module overlap</title><style>text{font-family:Arial,sans-serif;fill:#1f2933} .small{font-size:11px} .label{font-size:12px} .title{font-size:18px;font-weight:700}</style><rect width="100%" height="100%" fill="#ffffff"/>
<text class="title" x="28" y="34">Source by UOGTO module overlap</text>
<text class="small" x="210" y="88" transform="rotate(-45 210 88)">uogto_alignments_m</text>
<text class="small" x="264" y="88" transform="rotate(-45 264 88)">uogto_alignments_p</text>
<text class="small" x="318" y="88" transform="rotate(-45 318 88)">uogto_alignments_s</text>
<text class="small" x="372" y="88" transform="rotate(-45 372 88)">uogto_alignments_w</text>
<text class="small" x="426" y="88" transform="rotate(-45 426 88)">uogto_core_actions</text>
<text class="small" x="480" y="88" transform="rotate(-45 480 88)">uogto_core_agents</text>
<text class="small" x="534" y="88" transform="rotate(-45 534 88)">uogto_core_informa</text>
<text class="small" x="588" y="88" transform="rotate(-45 588 88)">uogto_core_rules</text>
<text class="small" x="642" y="88" transform="rotate(-45 642 88)">uogto_core_strateg</text>
<text class="small" x="696" y="88" transform="rotate(-45 696 88)">uogto_core_uogto-c</text>
<text class="small" x="750" y="88" transform="rotate(-45 750 88)">uogto_extensions_a</text>
<text class="small" x="804" y="88" transform="rotate(-45 804 88)">uogto_extensions_a</text>
<text class="small" x="858" y="88" transform="rotate(-45 858 88)">uogto_extensions_b</text>
<text class="small" x="912" y="88" transform="rotate(-45 912 88)">uogto_extensions_b</text>
<text class="small" x="28" y="112">owl_time</text>
<text class="small" x="28" y="140">prov_o</text>
<text class="small" x="28" y="168">schema_org</text>
<text class="small" x="28" y="196">ssn_sosa</text>
<rect x="190" y="94" width="52" height="26" fill="rgb(245,245,245)" stroke="#d9e2ec"/>
<rect x="190" y="122" width="52" height="26" fill="rgb(239,242,245)" stroke="#d9e2ec"/>
<text class="small" x="208" y="140">2</text>
<rect x="190" y="150" width="52" height="26" fill="rgb(245,245,245)" stroke="#d9e2ec"/>
<rect x="190" y="178" width="52" height="26" fill="rgb(242,244,245)" stroke="#d9e2ec"/>
<text class="small" x="208" y="196">1</text>
<rect x="244" y="94" width="52" height="26" fill="rgb(242,244,245)" stroke="#d9e2ec"/>
<text class="small" x="262" y="112">1</text>
<rect x="244" y="122" width="52" height="26" fill="rgb(151,192,236)" stroke="#d9e2ec"/>
<text class="small" x="262" y="140">28</text>
<rect x="244" y="150" width="52" height="26" fill="rgb(245,245,245)" stroke="#d9e2ec"/>
<rect x="244" y="178" width="52" height="26" fill="rgb(239,242,245)" stroke="#d9e2ec"/>
<text class="small" x="262" y="196">2</text>
<rect x="298" y="94" width="52" height="26" fill="rgb(245,245,245)" stroke="#d9e2ec"/>
<rect x="298" y="122" width="52" height="26" fill="rgb(245,245,245)" stroke="#d9e2ec"/>
<rect x="298" y="150" width="52" height="26" fill="rgb(208,225,242)" stroke="#d9e2ec"/>
<text class="small" x="316" y="168">11</text>
<rect x="298" y="178" width="52" height="26" fill="rgb(242,244,245)" stroke="#d9e2ec"/>
<text class="small" x="316" y="196">1</text>
<rect x="352" y="94" width="52" height="26" fill="rgb(245,245,245)" stroke="#d9e2ec"/>
<rect x="352" y="122" width="52" height="26" fill="rgb(242,244,245)" stroke="#d9e2ec"/>
<text class="small" x="370" y="140">1</text>
<rect x="352" y="150" width="52" height="26" fill="rgb(245,245,245)" stroke="#d9e2ec"/>
<rect x="352" y="178" width="52" height="26" fill="rgb(245,245,245)" stroke="#d9e2ec"/>
<rect x="406" y="94" width="52" height="26" fill="rgb(235,240,244)" stroke="#d9e2ec"/>
<text class="small" x="424" y="112">3</text>
<rect x="406" y="122" width="52" height="26" fill="rgb(242,244,245)" stroke="#d9e2ec"/>
<text class="small" x="424" y="140">1</text>
<rect x="406" y="150" width="52" height="26" fill="rgb(202,221,241)" stroke="#d9e2ec"/>
<text class="small" x="424" y="168">13</text>
<rect x="406" y="178" width="52" height="26" fill="rgb(245,245,245)" stroke="#d9e2ec"/>
<rect x="460" y="94" width="52" height="26" fill="rgb(235,240,244)" stroke="#d9e2ec"/>
<text class="small" x="478" y="112">3</text>
<rect x="460" y="122" width="52" height="26" fill="rgb(239,242,245)" stroke="#d9e2ec"/>
<text class="small" x="478" y="140">2</text>
<rect x="460" y="150" width="52" height="26" fill="rgb(245,245,245)" stroke="#d9e2ec"/>
<rect x="460" y="178" width="52" height="26" fill="rgb(242,244,245)" stroke="#d9e2ec"/>
<text class="small" x="478" y="196">1</text>
<rect x="514" y="94" width="52" height="26" fill="rgb(229,236,244)" stroke="#d9e2ec"/>
<text class="small" x="532" y="112">5</text>
<rect x="514" y="122" width="52" height="26" fill="rgb(245,245,245)" stroke="#d9e2ec"/>
<rect x="514" y="150" width="52" height="26" fill="rgb(245,245,245)" stroke="#d9e2ec"/>
<rect x="514" y="178" width="52" height="26" fill="rgb(245,245,245)" stroke="#d9e2ec"/>
<rect x="568" y="94" width="52" height="26" fill="rgb(245,245,245)" stroke="#d9e2ec"/>
<rect x="568" y="122" width="52" height="26" fill="rgb(245,245,245)" stroke="#d9e2ec"/>
<rect x="568" y="150" width="52" height="26" fill="rgb(242,244,245)" stroke="#d9e2ec"/>
<text class="small" x="586" y="168">1</text>
<rect x="568" y="178" width="52" height="26" fill="rgb(245,245,245)" stroke="#d9e2ec"/>
<rect x="622" y="94" width="52" height="26" fill="rgb(239,242,245)" stroke="#d9e2ec"/>
<text class="small" x="640" y="112">2</text>
<rect x="622" y="122" width="52" height="26" fill="rgb(245,245,245)" stroke="#d9e2ec"/>
<rect x="622" y="150" width="52" height="26" fill="rgb(245,245,245)" stroke="#d9e2ec"/>
<rect x="622" y="178" width="52" height="26" fill="rgb(242,244,245)" stroke="#d9e2ec"/>
<text class="small" x="640" y="196">1</text>
<rect x="676" y="94" width="52" height="26" fill="rgb(100,163,230)" stroke="#d9e2ec"/>
<text class="small" x="694" y="112">43</text>
<rect x="676" y="122" width="52" height="26" fill="rgb(124,177,233)" stroke="#d9e2ec"/>
<text class="small" x="694" y="140">36</text>
<rect x="676" y="150" width="52" height="26" fill="rgb(124,177,233)" stroke="#d9e2ec"/>
<text class="small" x="694" y="168">36</text>
<rect x="676" y="178" width="52" height="26" fill="rgb(131,181,234)" stroke="#d9e2ec"/>
<text class="small" x="694" y="196">34</text>
<rect x="730" y="94" width="52" height="26" fill="rgb(245,245,245)" stroke="#d9e2ec"/>
<rect x="730" y="122" width="52" height="26" fill="rgb(239,242,245)" stroke="#d9e2ec"/>
<text class="small" x="748" y="140">2</text>
<rect x="730" y="150" width="52" height="26" fill="rgb(239,242,245)" stroke="#d9e2ec"/>
<text class="small" x="748" y="168">2</text>
<rect x="730" y="178" width="52" height="26" fill="rgb(245,245,245)" stroke="#d9e2ec"/>
<rect x="784" y="94" width="52" height="26" fill="rgb(242,244,245)" stroke="#d9e2ec"/>
<text class="small" x="802" y="112">1</text>
<rect x="784" y="122" width="52" height="26" fill="rgb(225,234,243)" stroke="#d9e2ec"/>
<text class="small" x="802" y="140">6</text>
<rect x="784" y="150" width="52" height="26" fill="rgb(242,244,245)" stroke="#d9e2ec"/>
<text class="small" x="802" y="168">1</text>
<rect x="784" y="178" width="52" height="26" fill="rgb(242,244,245)" stroke="#d9e2ec"/>
<text class="small" x="802" y="196">1</text>
<rect x="838" y="94" width="52" height="26" fill="rgb(235,240,244)" stroke="#d9e2ec"/>
<text class="small" x="856" y="112">3</text>
<rect x="838" y="122" width="52" height="26" fill="rgb(245,245,245)" stroke="#d9e2ec"/>
<rect x="838" y="150" width="52" height="26" fill="rgb(245,245,245)" stroke="#d9e2ec"/>
<rect x="838" y="178" width="52" height="26" fill="rgb(242,244,245)" stroke="#d9e2ec"/>
<text class="small" x="856" y="196">1</text>
<rect x="892" y="94" width="52" height="26" fill="rgb(245,245,245)" stroke="#d9e2ec"/>
<rect x="892" y="122" width="52" height="26" fill="rgb(245,245,245)" stroke="#d9e2ec"/>
<rect x="892" y="150" width="52" height="26" fill="rgb(245,245,245)" stroke="#d9e2ec"/>
<rect x="892" y="178" width="52" height="26" fill="rgb(242,244,245)" stroke="#d9e2ec"/>
<text class="small" x="910" y="196">1</text>
</svg>
