<svg xmlns="http://www.w3.org/2000/svg" width="586" height="738" viewBox="0 0 586 738" role="img" aria-labelledby="title desc">
<title id="title">Source-family coverage by evidence level (term count)</title><desc id="desc">Source-family coverage by evidence level (term count)</desc><style>text{font-family:Arial,Helvetica,sans-serif;fill:#1f2933}.tiny{font-size:12px}.small{font-size:14px}.label{font-size:15px}.title{font-size:24px;font-weight:700}.caption{font-size:14px;fill:#475569}.axis{stroke:#CBD5E1}.callout{font-size:14px;font-weight:700}.edgeLabel{font-size:12px;paint-order:stroke;stroke:#ffffff;stroke-width:5px;stroke-linejoin:round}</style><rect width="100%" height="100%" fill="#ffffff"/>
<text class="title" x="36" y="42">Source-family coverage by evidence level (term count)</text>
<text class="caption" x="36" y="72">Evidence levels are separated so metadata-only coverage is not conflated with parsed RDF evidence.</text>
<text class="tiny" x="294" y="116" transform="rotate(-45 294 116)">parsed_rdf</text>
<text class="tiny" x="432" y="116" transform="rotate(-45 432 116)">metadata_only</text>
<text class="small" x="36" y="150">upper_ontology</text>
<text class="small" x="36" y="184">modelling_simulation_interoper</text>
<text class="small" x="36" y="218">simulation_experiment</text>
<text class="small" x="36" y="252">agent_based_modelling</text>
<text class="small" x="36" y="286">agent_policy</text>
<text class="small" x="36" y="320">discrete_event_simulation</text>
<text class="small" x="36" y="354">distributed_simulation</text>
<text class="small" x="36" y="388">game_description_language</text>
<text class="small" x="36" y="422">game_studies</text>
<text class="small" x="36" y="456">general_web_schema</text>
<text class="small" x="36" y="490">observation_sensor</text>
<text class="small" x="36" y="524">provenance</text>
<text class="small" x="36" y="558">simulation_algorithm</text>
<text class="small" x="36" y="592">system_dynamics</text>
<text class="small" x="36" y="626">time</text>
<text class="small" x="36" y="660">upper_modelling_reference</text>
<text class="small" x="36" y="694">workflow_plan</text>
<rect x="276" y="126" width="135" height="31" fill="#F7FBFF" stroke="#E2E8F0"/>
<rect x="276" y="160" width="135" height="31" fill="#F7FBFF" stroke="#E2E8F0"/>
<rect x="276" y="194" width="135" height="31" fill="#F7FBFF" stroke="#E2E8F0"/>
<rect x="276" y="228" width="135" height="31" fill="#F7FBFF" stroke="#E2E8F0"/>
<rect x="276" y="262" width="135" height="31" fill="#F7FBFF" stroke="#E2E8F0"/>
<rect x="276" y="296" width="135" height="31" fill="#F7FBFF" stroke="#E2E8F0"/>
<rect x="276" y="330" width="135" height="31" fill="#F7FBFF" stroke="#E2E8F0"/>
<rect x="276" y="364" width="135" height="31" fill="#F7FBFF" stroke="#E2E8F0"/>
<rect x="276" y="398" width="135" height="31" fill="#F7FBFF" stroke="#E2E8F0"/>
<rect x="276" y="432" width="135" height="31" fill="#08519C" stroke="#E2E8F0"/>
<text class="tiny" x="296" y="454">3219</text>
<rect x="276" y="466" width="135" height="31" fill="#F7FBFF" stroke="#E2E8F0"/>
<text class="tiny" x="296" y="488">49</text>
<rect x="276" y="500" width="135" height="31" fill="#F7FBFF" stroke="#E2E8F0"/>
<text class="tiny" x="296" y="522">103</text>
<rect x="276" y="534" width="135" height="31" fill="#F7FBFF" stroke="#E2E8F0"/>
<rect x="276" y="568" width="135" height="31" fill="#F7FBFF" stroke="#E2E8F0"/>
<rect x="276" y="602" width="135" height="31" fill="#F7FBFF" stroke="#E2E8F0"/>
<text class="tiny" x="296" y="624">97</text>
<rect x="276" y="636" width="135" height="31" fill="#F7FBFF" stroke="#E2E8F0"/>
<rect x="276" y="670" width="135" height="31" fill="#F7FBFF" stroke="#E2E8F0"/>
<rect x="414" y="126" width="135" height="31" fill="#F7FBFF" stroke="#E2E8F0"/>
<text class="tiny" x="434" y="148">1</text>
<rect x="414" y="160" width="135" height="31" fill="#F7FBFF" stroke="#E2E8F0"/>
<text class="tiny" x="434" y="182">1</text>
<rect x="414" y="194" width="135" height="31" fill="#F7FBFF" stroke="#E2E8F0"/>
<text class="tiny" x="434" y="216">1</text>
<rect x="414" y="228" width="135" height="31" fill="#F7FBFF" stroke="#E2E8F0"/>
<text class="tiny" x="434" y="250">1</text>
<rect x="414" y="262" width="135" height="31" fill="#F7FBFF" stroke="#E2E8F0"/>
<text class="tiny" x="434" y="284">1</text>
<rect x="414" y="296" width="135" height="31" fill="#F7FBFF" stroke="#E2E8F0"/>
<text class="tiny" x="434" y="318">1</text>
<rect x="414" y="330" width="135" height="31" fill="#F7FBFF" stroke="#E2E8F0"/>
<text class="tiny" x="434" y="352">1</text>
<rect x="414" y="364" width="135" height="31" fill="#F7FBFF" stroke="#E2E8F0"/>
<text class="tiny" x="434" y="386">1</text>
<rect x="414" y="398" width="135" height="31" fill="#F7FBFF" stroke="#E2E8F0"/>
<text class="tiny" x="434" y="420">1</text>
<rect x="414" y="432" width="135" height="31" fill="#F7FBFF" stroke="#E2E8F0"/>
<rect x="414" y="466" width="135" height="31" fill="#F7FBFF" stroke="#E2E8F0"/>
<rect x="414" y="500" width="135" height="31" fill="#F7FBFF" stroke="#E2E8F0"/>
<rect x="414" y="534" width="135" height="31" fill="#F7FBFF" stroke="#E2E8F0"/>
<text class="tiny" x="434" y="556">1</text>
<rect x="414" y="568" width="135" height="31" fill="#F7FBFF" stroke="#E2E8F0"/>
<text class="tiny" x="434" y="590">1</text>
<rect x="414" y="602" width="135" height="31" fill="#F7FBFF" stroke="#E2E8F0"/>
<rect x="414" y="636" width="135" height="31" fill="#F7FBFF" stroke="#E2E8F0"/>
<text class="tiny" x="434" y="658">1</text>
<rect x="414" y="670" width="135" height="31" fill="#F7FBFF" stroke="#E2E8F0"/>
<text class="tiny" x="434" y="692">1</text>
<text class="caption" x="36" y="714">Colour scale: white to blue; numbers are source or term counts.</text>
</svg>
