<svg xmlns="http://www.w3.org/2000/svg" width="1200" height="1010" viewBox="0 0 1200 1010" role="img" aria-labelledby="title desc">
<title id="title">External source sizes</title><desc id="desc">External source sizes</desc><style>text{font-family:Arial,Helvetica,sans-serif;fill:#1f2933}.tiny{font-size:12px}.small{font-size:14px}.label{font-size:15px}.title{font-size:24px;font-weight:700}.caption{font-size:14px;fill:#475569}.axis{stroke:#CBD5E1}.callout{font-size:14px;font-weight:700}</style><rect width="100%" height="100%" fill="#ffffff"/>
<text class="title" x="36" y="42">External source sizes</text>
<line class="axis" x1="340" y1="88" x2="1130" y2="88"/>
<text class="label" x="36" y="125">schema.org</text>
<rect x="340" y="104" width="740" height="28" fill="#0072B2" rx="3"/>
<text class="small" x="1092" y="124">3219</text>
<text class="label" x="36" y="169">PROV-O</text>
<rect x="340" y="148" width="23" height="28" fill="#009E73" rx="3"/>
<text class="small" x="375" y="168">103</text>
<text class="label" x="36" y="213">OWL-Time</text>
<rect x="340" y="192" width="22" height="28" fill="#D55E00" rx="3"/>
<text class="small" x="374" y="212">97</text>
<text class="label" x="36" y="257">SSN/SOSA</text>
<rect x="340" y="236" width="11" height="28" fill="#CC79A7" rx="3"/>
<text class="small" x="363" y="256">49</text>
<text class="label" x="36" y="301">Basic Formal Ontology</text>
<rect x="340" y="280" width="0" height="28" fill="#E69F00" rx="3"/>
<text class="small" x="352" y="300">1</text>
<text class="label" x="36" y="345">DEVS formalism and DEVS metamodel reso</text>
<rect x="340" y="324" width="0" height="28" fill="#56B4E9" rx="3"/>
<text class="small" x="352" y="344">1</text>
<text class="label" x="36" y="389">DOLCE</text>
<rect x="340" y="368" width="0" height="28" fill="#000000" rx="3"/>
<text class="small" x="352" y="388">1</text>
<text class="label" x="36" y="433">European Materials and Modelling Ontol</text>
<rect x="340" y="412" width="0" height="28" fill="#999999" rx="3"/>
<text class="small" x="352" y="432">1</text>
<text class="label" x="36" y="477">Game Description Language and GDL reso</text>
<rect x="340" y="456" width="0" height="28" fill="#0072B2" rx="3"/>
<text class="small" x="352" y="476">1</text>
<text class="label" x="36" y="521">Game Ontology Project</text>
<rect x="340" y="500" width="0" height="28" fill="#009E73" rx="3"/>
<text class="small" x="352" y="520">1</text>
<text class="label" x="36" y="565">High Level Architecture Federation Obj</text>
<rect x="340" y="544" width="0" height="28" fill="#D55E00" rx="3"/>
<text class="small" x="352" y="564">1</text>
<text class="label" x="36" y="609">KAoS ontology and policy services</text>
<rect x="340" y="588" width="0" height="28" fill="#CC79A7" rx="3"/>
<text class="small" x="352" y="608">1</text>
<text class="label" x="36" y="653">Kinetic Simulation Algorithm Ontology</text>
<rect x="340" y="632" width="0" height="28" fill="#E69F00" rx="3"/>
<text class="small" x="352" y="652">1</text>
<text class="label" x="36" y="697">Minimum Information About a Simulation</text>
<rect x="340" y="676" width="0" height="28" fill="#56B4E9" rx="3"/>
<text class="small" x="352" y="696">1</text>
<text class="label" x="36" y="741">ODD protocol for agent-based models</text>
<rect x="340" y="720" width="0" height="28" fill="#000000" rx="3"/>
<text class="small" x="352" y="740">1</text>
<text class="label" x="36" y="785">OntoUML / Unified Foundational Ontolog</text>
<rect x="340" y="764" width="0" height="28" fill="#999999" rx="3"/>
<text class="small" x="352" y="784">1</text>
<text class="label" x="36" y="829">Ontology for Simulation, Modelling, an</text>
<rect x="340" y="808" width="0" height="28" fill="#0072B2" rx="3"/>
<text class="small" x="352" y="828">1</text>
<text class="label" x="36" y="873">P-Plan ontology</text>
<rect x="340" y="852" width="0" height="28" fill="#009E73" rx="3"/>
<text class="small" x="352" y="872">1</text>
<text class="label" x="36" y="917">Simulation Experiment Description Mark</text>
<rect x="340" y="896" width="0" height="28" fill="#D55E00" rx="3"/>
<text class="small" x="352" y="916">1</text>
<text class="label" x="36" y="961">Virtual Materials Marketplace Ontologi</text>
<rect x="340" y="940" width="0" height="28" fill="#CC79A7" rx="3"/>
<text class="small" x="352" y="960">1</text>
</svg>
