<svg xmlns="http://www.w3.org/2000/svg" width="460" height="596" viewBox="0 0 460 596" role="img">
<title>Source-family coverage by evidence level (term count)</title><style>text{font-family:Arial,sans-serif;fill:#1f2933} .small{font-size:11px} .label{font-size:12px} .title{font-size:18px;font-weight:700}</style><rect width="100%" height="100%" fill="#ffffff"/>
<text class="title" x="28" y="34">Source-family coverage by evidence level (term count)</text>
<text class="small" x="230" y="88" transform="rotate(-45 230 88)">parsed_rdf</text>
<text class="small" x="340" y="88" transform="rotate(-45 340 88)">metadata_only</text>
<text class="small" x="28" y="112">upper_ontology</text>
<text class="small" x="28" y="140">modelling_simulation_interop</text>
<text class="small" x="28" y="168">simulation_experiment</text>
<text class="small" x="28" y="196">agent_based_modelling</text>
<text class="small" x="28" y="224">agent_policy</text>
<text class="small" x="28" y="252">discrete_event_simulation</text>
<text class="small" x="28" y="280">distributed_simulation</text>
<text class="small" x="28" y="308">game_description_language</text>
<text class="small" x="28" y="336">game_studies</text>
<text class="small" x="28" y="364">general_web_schema</text>
<text class="small" x="28" y="392">observation_sensor</text>
<text class="small" x="28" y="420">provenance</text>
<text class="small" x="28" y="448">simulation_algorithm</text>
<text class="small" x="28" y="476">system_dynamics</text>
<text class="small" x="28" y="504">time</text>
<text class="small" x="28" y="532">upper_modelling_reference</text>
<text class="small" x="28" y="560">workflow_plan</text>
<rect x="220" y="94" width="108" height="26" fill="rgb(245,245,245)" stroke="#d9e2ec"/>
<rect x="220" y="122" width="108" height="26" fill="rgb(245,245,245)" stroke="#d9e2ec"/>
<rect x="220" y="150" width="108" height="26" fill="rgb(245,245,245)" stroke="#d9e2ec"/>
<rect x="220" y="178" width="108" height="26" fill="rgb(245,245,245)" stroke="#d9e2ec"/>
<rect x="220" y="206" width="108" height="26" fill="rgb(245,245,245)" stroke="#d9e2ec"/>
<rect x="220" y="234" width="108" height="26" fill="rgb(245,245,245)" stroke="#d9e2ec"/>
<rect x="220" y="262" width="108" height="26" fill="rgb(245,245,245)" stroke="#d9e2ec"/>
<rect x="220" y="290" width="108" height="26" fill="rgb(245,245,245)" stroke="#d9e2ec"/>
<rect x="220" y="318" width="108" height="26" fill="rgb(245,245,245)" stroke="#d9e2ec"/>
<rect x="220" y="346" width="108" height="26" fill="rgb(100,163,230)" stroke="#d9e2ec"/>
<text class="small" x="238" y="364">3219</text>
<rect x="220" y="374" width="108" height="26" fill="rgb(243,244,245)" stroke="#d9e2ec"/>
<text class="small" x="238" y="392">49</text>
<rect x="220" y="402" width="108" height="26" fill="rgb(241,243,245)" stroke="#d9e2ec"/>
<text class="small" x="238" y="420">103</text>
<rect x="220" y="430" width="108" height="26" fill="rgb(245,245,245)" stroke="#d9e2ec"/>
<rect x="220" y="458" width="108" height="26" fill="rgb(245,245,245)" stroke="#d9e2ec"/>
<rect x="220" y="486" width="108" height="26" fill="rgb(241,243,245)" stroke="#d9e2ec"/>
<text class="small" x="238" y="504">97</text>
<rect x="220" y="514" width="108" height="26" fill="rgb(245,245,245)" stroke="#d9e2ec"/>
<rect x="220" y="542" width="108" height="26" fill="rgb(245,245,245)" stroke="#d9e2ec"/>
<rect x="330" y="94" width="108" height="26" fill="rgb(245,245,245)" stroke="#d9e2ec"/>
<text class="small" x="348" y="112">1</text>
<rect x="330" y="122" width="108" height="26" fill="rgb(245,245,245)" stroke="#d9e2ec"/>
<text class="small" x="348" y="140">1</text>
<rect x="330" y="150" width="108" height="26" fill="rgb(245,245,245)" stroke="#d9e2ec"/>
<text class="small" x="348" y="168">1</text>
<rect x="330" y="178" width="108" height="26" fill="rgb(245,245,245)" stroke="#d9e2ec"/>
<text class="small" x="348" y="196">1</text>
<rect x="330" y="206" width="108" height="26" fill="rgb(245,245,245)" stroke="#d9e2ec"/>
<text class="small" x="348" y="224">1</text>
<rect x="330" y="234" width="108" height="26" fill="rgb(245,245,245)" stroke="#d9e2ec"/>
<text class="small" x="348" y="252">1</text>
<rect x="330" y="262" width="108" height="26" fill="rgb(245,245,245)" stroke="#d9e2ec"/>
<text class="small" x="348" y="280">1</text>
<rect x="330" y="290" width="108" height="26" fill="rgb(245,245,245)" stroke="#d9e2ec"/>
<text class="small" x="348" y="308">1</text>
<rect x="330" y="318" width="108" height="26" fill="rgb(245,245,245)" stroke="#d9e2ec"/>
<text class="small" x="348" y="336">1</text>
<rect x="330" y="346" width="108" height="26" fill="rgb(245,245,245)" stroke="#d9e2ec"/>
<rect x="330" y="374" width="108" height="26" fill="rgb(245,245,245)" stroke="#d9e2ec"/>
<rect x="330" y="402" width="108" height="26" fill="rgb(245,245,245)" stroke="#d9e2ec"/>
<rect x="330" y="430" width="108" height="26" fill="rgb(245,245,245)" stroke="#d9e2ec"/>
<text class="small" x="348" y="448">1</text>
<rect x="330" y="458" width="108" height="26" fill="rgb(245,245,245)" stroke="#d9e2ec"/>
<text class="small" x="348" y="476">1</text>
<rect x="330" y="486" width="108" height="26" fill="rgb(245,245,245)" stroke="#d9e2ec"/>
<rect x="330" y="514" width="108" height="26" fill="rgb(245,245,245)" stroke="#d9e2ec"/>
<text class="small" x="348" y="532">1</text>
<rect x="330" y="542" width="108" height="26" fill="rgb(245,245,245)" stroke="#d9e2ec"/>
<text class="small" x="348" y="560">1</text>
</svg>
