<svg xmlns="http://www.w3.org/2000/svg" width="1252" height="296" viewBox="0 0 1252 296" role="img" aria-labelledby="title desc">
<title id="title">Source by UOGTO module overlap</title><desc id="desc">Source by UOGTO module overlap</desc><style>text{font-family:Arial,Helvetica,sans-serif;fill:#1f2933}.tiny{font-size:12px}.small{font-size:14px}.label{font-size:15px}.title{font-size:24px;font-weight:700}.caption{font-size:14px;fill:#475569}.axis{stroke:#CBD5E1}.callout{font-size:14px;font-weight:700}</style><rect width="100%" height="100%" fill="#ffffff"/>
<text class="title" x="36" y="42">Source by UOGTO module overlap</text>
<text class="caption" x="36" y="72">Darker cells indicate more candidate mappings between a source and a UOGTO module.</text>
<text class="tiny" x="285" y="116" transform="rotate(-45 285 116)">uogto_alignments_m</text>
<text class="tiny" x="353" y="116" transform="rotate(-45 353 116)">uogto_alignments_p</text>
<text class="tiny" x="421" y="116" transform="rotate(-45 421 116)">uogto_alignments_s</text>
<text class="tiny" x="489" y="116" transform="rotate(-45 489 116)">uogto_alignments_w</text>
<text class="tiny" x="557" y="116" transform="rotate(-45 557 116)">uogto_core_actions</text>
<text class="tiny" x="625" y="116" transform="rotate(-45 625 116)">uogto_core_agents</text>
<text class="tiny" x="693" y="116" transform="rotate(-45 693 116)">uogto_core_informa</text>
<text class="tiny" x="761" y="116" transform="rotate(-45 761 116)">uogto_core_rules</text>
<text class="tiny" x="829" y="116" transform="rotate(-45 829 116)">uogto_core_strateg</text>
<text class="tiny" x="897" y="116" transform="rotate(-45 897 116)">uogto_core_uogto-c</text>
<text class="tiny" x="965" y="116" transform="rotate(-45 965 116)">uogto_extensions_a</text>
<text class="tiny" x="1033" y="116" transform="rotate(-45 1033 116)">uogto_extensions_a</text>
<text class="tiny" x="1101" y="116" transform="rotate(-45 1101 116)">uogto_extensions_b</text>
<text class="tiny" x="1169" y="116" transform="rotate(-45 1169 116)">uogto_extensions_b</text>
<text class="small" x="36" y="150">owl_time</text>
<text class="small" x="36" y="184">prov_o</text>
<text class="small" x="36" y="218">schema_org</text>
<text class="small" x="36" y="252">ssn_sosa</text>
<rect x="260" y="126" width="65" height="31" fill="#F7FBFF" stroke="#E2E8F0"/>
<rect x="260" y="160" width="65" height="31" fill="#F7FBFF" stroke="#E2E8F0"/>
<text class="tiny" x="282" y="182">2</text>
<rect x="260" y="194" width="65" height="31" fill="#F7FBFF" stroke="#E2E8F0"/>
<rect x="260" y="228" width="65" height="31" fill="#F7FBFF" stroke="#E2E8F0"/>
<text class="tiny" x="282" y="250">1</text>
<rect x="328" y="126" width="65" height="31" fill="#F7FBFF" stroke="#E2E8F0"/>
<text class="tiny" x="350" y="148">1</text>
<rect x="328" y="160" width="65" height="31" fill="#6BAED6" stroke="#E2E8F0"/>
<text class="tiny" x="350" y="182">28</text>
<rect x="328" y="194" width="65" height="31" fill="#F7FBFF" stroke="#E2E8F0"/>
<rect x="328" y="228" width="65" height="31" fill="#F7FBFF" stroke="#E2E8F0"/>
<text class="tiny" x="350" y="250">2</text>
<rect x="396" y="126" width="65" height="31" fill="#F7FBFF" stroke="#E2E8F0"/>
<rect x="396" y="160" width="65" height="31" fill="#F7FBFF" stroke="#E2E8F0"/>
<rect x="396" y="194" width="65" height="31" fill="#C6DBEF" stroke="#E2E8F0"/>
<text class="tiny" x="418" y="216">11</text>
<rect x="396" y="228" width="65" height="31" fill="#F7FBFF" stroke="#E2E8F0"/>
<text class="tiny" x="418" y="250">1</text>
<rect x="464" y="126" width="65" height="31" fill="#F7FBFF" stroke="#E2E8F0"/>
<rect x="464" y="160" width="65" height="31" fill="#F7FBFF" stroke="#E2E8F0"/>
<text class="tiny" x="486" y="182">1</text>
<rect x="464" y="194" width="65" height="31" fill="#F7FBFF" stroke="#E2E8F0"/>
<rect x="464" y="228" width="65" height="31" fill="#F7FBFF" stroke="#E2E8F0"/>
<rect x="532" y="126" width="65" height="31" fill="#F7FBFF" stroke="#E2E8F0"/>
<text class="tiny" x="554" y="148">3</text>
<rect x="532" y="160" width="65" height="31" fill="#F7FBFF" stroke="#E2E8F0"/>
<text class="tiny" x="554" y="182">1</text>
<rect x="532" y="194" width="65" height="31" fill="#C6DBEF" stroke="#E2E8F0"/>
<text class="tiny" x="554" y="216">13</text>
<rect x="532" y="228" width="65" height="31" fill="#F7FBFF" stroke="#E2E8F0"/>
<rect x="600" y="126" width="65" height="31" fill="#F7FBFF" stroke="#E2E8F0"/>
<text class="tiny" x="622" y="148">3</text>
<rect x="600" y="160" width="65" height="31" fill="#F7FBFF" stroke="#E2E8F0"/>
<text class="tiny" x="622" y="182">2</text>
<rect x="600" y="194" width="65" height="31" fill="#F7FBFF" stroke="#E2E8F0"/>
<rect x="600" y="228" width="65" height="31" fill="#F7FBFF" stroke="#E2E8F0"/>
<text class="tiny" x="622" y="250">1</text>
<rect x="668" y="126" width="65" height="31" fill="#DEEBF7" stroke="#E2E8F0"/>
<text class="tiny" x="690" y="148">5</text>
<rect x="668" y="160" width="65" height="31" fill="#F7FBFF" stroke="#E2E8F0"/>
<rect x="668" y="194" width="65" height="31" fill="#F7FBFF" stroke="#E2E8F0"/>
<rect x="668" y="228" width="65" height="31" fill="#F7FBFF" stroke="#E2E8F0"/>
<rect x="736" y="126" width="65" height="31" fill="#F7FBFF" stroke="#E2E8F0"/>
<rect x="736" y="160" width="65" height="31" fill="#F7FBFF" stroke="#E2E8F0"/>
<rect x="736" y="194" width="65" height="31" fill="#F7FBFF" stroke="#E2E8F0"/>
<text class="tiny" x="758" y="216">1</text>
<rect x="736" y="228" width="65" height="31" fill="#F7FBFF" stroke="#E2E8F0"/>
<rect x="804" y="126" width="65" height="31" fill="#F7FBFF" stroke="#E2E8F0"/>
<text class="tiny" x="826" y="148">2</text>
<rect x="804" y="160" width="65" height="31" fill="#F7FBFF" stroke="#E2E8F0"/>
<rect x="804" y="194" width="65" height="31" fill="#F7FBFF" stroke="#E2E8F0"/>
<rect x="804" y="228" width="65" height="31" fill="#F7FBFF" stroke="#E2E8F0"/>
<text class="tiny" x="826" y="250">1</text>
<rect x="872" y="126" width="65" height="31" fill="#08519C" stroke="#E2E8F0"/>
<text class="tiny" x="894" y="148">43</text>
<rect x="872" y="160" width="65" height="31" fill="#3182BD" stroke="#E2E8F0"/>
<text class="tiny" x="894" y="182">36</text>
<rect x="872" y="194" width="65" height="31" fill="#3182BD" stroke="#E2E8F0"/>
<text class="tiny" x="894" y="216">36</text>
<rect x="872" y="228" width="65" height="31" fill="#3182BD" stroke="#E2E8F0"/>
<text class="tiny" x="894" y="250">34</text>
<rect x="940" y="126" width="65" height="31" fill="#F7FBFF" stroke="#E2E8F0"/>
<rect x="940" y="160" width="65" height="31" fill="#F7FBFF" stroke="#E2E8F0"/>
<text class="tiny" x="962" y="182">2</text>
<rect x="940" y="194" width="65" height="31" fill="#F7FBFF" stroke="#E2E8F0"/>
<text class="tiny" x="962" y="216">2</text>
<rect x="940" y="228" width="65" height="31" fill="#F7FBFF" stroke="#E2E8F0"/>
<rect x="1008" y="126" width="65" height="31" fill="#F7FBFF" stroke="#E2E8F0"/>
<text class="tiny" x="1030" y="148">1</text>
<rect x="1008" y="160" width="65" height="31" fill="#DEEBF7" stroke="#E2E8F0"/>
<text class="tiny" x="1030" y="182">6</text>
<rect x="1008" y="194" width="65" height="31" fill="#F7FBFF" stroke="#E2E8F0"/>
<text class="tiny" x="1030" y="216">1</text>
<rect x="1008" y="228" width="65" height="31" fill="#F7FBFF" stroke="#E2E8F0"/>
<text class="tiny" x="1030" y="250">1</text>
<rect x="1076" y="126" width="65" height="31" fill="#F7FBFF" stroke="#E2E8F0"/>
<text class="tiny" x="1098" y="148">3</text>
<rect x="1076" y="160" width="65" height="31" fill="#F7FBFF" stroke="#E2E8F0"/>
<rect x="1076" y="194" width="65" height="31" fill="#F7FBFF" stroke="#E2E8F0"/>
<rect x="1076" y="228" width="65" height="31" fill="#F7FBFF" stroke="#E2E8F0"/>
<text class="tiny" x="1098" y="250">1</text>
<rect x="1144" y="126" width="65" height="31" fill="#F7FBFF" stroke="#E2E8F0"/>
<rect x="1144" y="160" width="65" height="31" fill="#F7FBFF" stroke="#E2E8F0"/>
<rect x="1144" y="194" width="65" height="31" fill="#F7FBFF" stroke="#E2E8F0"/>
<rect x="1144" y="228" width="65" height="31" fill="#F7FBFF" stroke="#E2E8F0"/>
<text class="tiny" x="1166" y="250">1</text>
<text class="caption" x="36" y="272">Scale: white to blue; labels show non-zero candidate counts.</text>
</svg>
