<svg xmlns="http://www.w3.org/2000/svg" width="980" height="770" viewBox="0 0 980 770" role="img">
<title>External source sizes</title><style>text{font-family:Arial,sans-serif;fill:#1f2933} .small{font-size:11px} .label{font-size:12px} .title{font-size:18px;font-weight:700}</style><rect width="100%" height="100%" fill="#ffffff"/>
<text class="title" x="28" y="34">External source sizes</text>
<text class="label" x="28" y="78">schema.org</text>
<rect x="260" y="62" width="660" height="24" fill="#24536b" rx="2"/>
<text class="small" x="928" y="78">3219</text>
<text class="label" x="28" y="112">PROV-O</text>
<rect x="260" y="96" width="21" height="24" fill="#4f7c45" rx="2"/>
<text class="small" x="289" y="112">103</text>
<text class="label" x="28" y="146">OWL-Time</text>
<rect x="260" y="130" width="19" height="24" fill="#a65f2a" rx="2"/>
<text class="small" x="287" y="146">97</text>
<text class="label" x="28" y="180">SSN/SOSA</text>
<rect x="260" y="164" width="10" height="24" fill="#7a4f8f" rx="2"/>
<text class="small" x="278" y="180">49</text>
<text class="label" x="28" y="214">Basic Formal Ontology</text>
<rect x="260" y="198" width="0" height="24" fill="#b44b4b" rx="2"/>
<text class="small" x="268" y="214">1</text>
<text class="label" x="28" y="248">DEVS formalism and DEVS metamodel </text>
<rect x="260" y="232" width="0" height="24" fill="#3d6fa8" rx="2"/>
<text class="small" x="268" y="248">1</text>
<text class="label" x="28" y="282">DOLCE</text>
<rect x="260" y="266" width="0" height="24" fill="#8a6b2e" rx="2"/>
<text class="small" x="268" y="282">1</text>
<text class="label" x="28" y="316">European Materials and Modelling O</text>
<rect x="260" y="300" width="0" height="24" fill="#4c6b5f" rx="2"/>
<text class="small" x="268" y="316">1</text>
<text class="label" x="28" y="350">Game Description Language and GDL </text>
<rect x="260" y="334" width="0" height="24" fill="#24536b" rx="2"/>
<text class="small" x="268" y="350">1</text>
<text class="label" x="28" y="384">Game Ontology Project</text>
<rect x="260" y="368" width="0" height="24" fill="#4f7c45" rx="2"/>
<text class="small" x="268" y="384">1</text>
<text class="label" x="28" y="418">High Level Architecture Federation</text>
<rect x="260" y="402" width="0" height="24" fill="#a65f2a" rx="2"/>
<text class="small" x="268" y="418">1</text>
<text class="label" x="28" y="452">KAoS ontology and policy services</text>
<rect x="260" y="436" width="0" height="24" fill="#7a4f8f" rx="2"/>
<text class="small" x="268" y="452">1</text>
<text class="label" x="28" y="486">Kinetic Simulation Algorithm Ontol</text>
<rect x="260" y="470" width="0" height="24" fill="#b44b4b" rx="2"/>
<text class="small" x="268" y="486">1</text>
<text class="label" x="28" y="520">Minimum Information About a Simula</text>
<rect x="260" y="504" width="0" height="24" fill="#3d6fa8" rx="2"/>
<text class="small" x="268" y="520">1</text>
<text class="label" x="28" y="554">ODD protocol for agent-based model</text>
<rect x="260" y="538" width="0" height="24" fill="#8a6b2e" rx="2"/>
<text class="small" x="268" y="554">1</text>
<text class="label" x="28" y="588">OntoUML / Unified Foundational Ont</text>
<rect x="260" y="572" width="0" height="24" fill="#4c6b5f" rx="2"/>
<text class="small" x="268" y="588">1</text>
<text class="label" x="28" y="622">Ontology for Simulation, Modelling</text>
<rect x="260" y="606" width="0" height="24" fill="#24536b" rx="2"/>
<text class="small" x="268" y="622">1</text>
<text class="label" x="28" y="656">P-Plan ontology</text>
<rect x="260" y="640" width="0" height="24" fill="#4f7c45" rx="2"/>
<text class="small" x="268" y="656">1</text>
<text class="label" x="28" y="690">Simulation Experiment Description </text>
<rect x="260" y="674" width="0" height="24" fill="#a65f2a" rx="2"/>
<text class="small" x="268" y="690">1</text>
<text class="label" x="28" y="724">Virtual Materials Marketplace Onto</text>
<rect x="260" y="708" width="0" height="24" fill="#7a4f8f" rx="2"/>
<text class="small" x="268" y="724">1</text>
</svg>
