<svg xmlns="http://www.w3.org/2000/svg" width="1200" height="820" viewBox="0 0 1200 820" role="img" aria-labelledby="title desc">
<title id="title">Source similarity network</title><desc id="desc">Source similarity network</desc><style>text{font-family:Arial,Helvetica,sans-serif;fill:#1f2933}.tiny{font-size:12px}.small{font-size:14px}.label{font-size:15px}.title{font-size:24px;font-weight:700}.caption{font-size:14px;fill:#475569}.axis{stroke:#CBD5E1}.callout{font-size:14px;font-weight:700}</style><rect width="100%" height="100%" fill="#ffffff"/>
<text class="title" x="36" y="42">Source similarity network</text>
<text class="caption" x="36" y="72">Only the highest-degree bridge sources are labelled; unlabelled nodes remain in the network for context.</text>
<line x1="600.0" y1="130.0" x2="322.8" y2="544.8" stroke="#94A3B8" stroke-width="1.0" opacity="0.42"/>
<line x1="600.0" y1="130.0" x2="485.2" y2="707.2" stroke="#94A3B8" stroke-width="1.0" opacity="0.42"/>
<line x1="600.0" y1="130.0" x2="714.8" y2="707.2" stroke="#94A3B8" stroke-width="0.9" opacity="0.42"/>
<line x1="600.0" y1="130.0" x2="877.2" y2="544.8" stroke="#94A3B8" stroke-width="1.0" opacity="0.42"/>
<line x1="600.0" y1="130.0" x2="300.0" y2="430.0" stroke="#94A3B8" stroke-width="0.9" opacity="0.42"/>
<line x1="600.0" y1="130.0" x2="387.9" y2="642.1" stroke="#94A3B8" stroke-width="0.9" opacity="0.42"/>
<line x1="600.0" y1="130.0" x2="600.0" y2="730.0" stroke="#94A3B8" stroke-width="0.9" opacity="0.42"/>
<line x1="600.0" y1="130.0" x2="900.0" y2="430.0" stroke="#94A3B8" stroke-width="1.0" opacity="0.42"/>
<line x1="600.0" y1="130.0" x2="812.1" y2="642.1" stroke="#94A3B8" stroke-width="0.9" opacity="0.42"/>
<line x1="600.0" y1="130.0" x2="485.2" y2="152.8" stroke="#94A3B8" stroke-width="0.9" opacity="0.42"/>
<circle cx="900.0" cy="430.0" r="32" fill="#0072B2" opacity="0.94" stroke="#ffffff" stroke-width="2"/>
<text class="small" x="658.0" y="435.0">uogto_extensions_mean-field-ga</text>
<circle cx="877.2" cy="544.8" r="32" fill="#009E73" opacity="0.94" stroke="#ffffff" stroke-width="2"/>
<text class="small" x="635.2" y="549.8">uogto_extensions_cooperative</text>
<circle cx="812.1" cy="642.1" r="32" fill="#D55E00" opacity="0.94" stroke="#ffffff" stroke-width="2"/>
<text class="small" x="570.1" y="647.1">uogto_extensions_network-games</text>
<circle cx="714.8" cy="707.2" r="32" fill="#CC79A7" opacity="0.94" stroke="#ffffff" stroke-width="2"/>
<text class="small" x="472.8" y="712.2">uogto_extensions_congestion-ro</text>
<circle cx="600.0" cy="730.0" r="32" fill="#E69F00" opacity="0.94" stroke="#ffffff" stroke-width="2"/>
<text class="small" x="358.0" y="735.0">uogto_extensions_evolutionary-</text>
<circle cx="485.2" cy="707.2" r="32" fill="#56B4E9" opacity="0.94" stroke="#ffffff" stroke-width="2"/>
<text class="small" x="525.2" y="712.2">uogto_extensions_compositional</text>
<circle cx="387.9" cy="642.1" r="32" fill="#000000" opacity="0.94" stroke="#ffffff" stroke-width="2"/>
<text class="small" x="427.9" y="647.1">uogto_extensions_epistemic-gam</text>
<circle cx="322.8" cy="544.8" r="32" fill="#999999" opacity="0.94" stroke="#ffffff" stroke-width="2"/>
<text class="small" x="362.8" y="549.8">uogto_extensions_causal-games</text>
<circle cx="300.0" cy="430.0" r="32" fill="#0072B2" opacity="0.94" stroke="#ffffff" stroke-width="2"/>
<circle cx="322.8" cy="315.2" r="32" fill="#009E73" opacity="0.94" stroke="#ffffff" stroke-width="2"/>
<circle cx="387.9" cy="217.9" r="32" fill="#D55E00" opacity="0.94" stroke="#ffffff" stroke-width="2"/>
<circle cx="485.2" cy="152.8" r="32" fill="#CC79A7" opacity="0.94" stroke="#ffffff" stroke-width="2"/>
<circle cx="600.0" cy="130.0" r="32" fill="#E69F00" opacity="0.94" stroke="#ffffff" stroke-width="2"/>
<circle cx="714.8" cy="152.8" r="32" fill="#56B4E9" opacity="0.94" stroke="#ffffff" stroke-width="2"/>
<circle cx="812.1" cy="217.9" r="32" fill="#000000" opacity="0.94" stroke="#ffffff" stroke-width="2"/>
<circle cx="877.2" cy="315.2" r="32" fill="#999999" opacity="0.94" stroke="#ffffff" stroke-width="2"/>
<text class="caption" x="36" y="792">Node size encodes degree. Labels show the top bridge sources only to preserve print readability.</text>
</svg>
